<?xml version="1.0" encoding="utf-8"?>
<!-- Generator: Adobe Illustrator 19.0.0, SVG Export Plug-In . SVG Version: 6.00 Build 0)  -->
<svg version="1.1" id="Layer_1" xmlns="http://www.w3.org/2000/svg" xmlns:xlink="http://www.w3.org/1999/xlink" x="0px" y="0px"
	 viewBox="0 0 479 479" style="enable-background:new 0 0 479 479;" xml:space="preserve">
<style type="text/css">
	.st0{fill:#FFFFFF;}
</style>
<g>
	<path class="st0" d="M458.6,219.3c-51.4-68.6-133.3-109.5-219.1-109.5S71.9,150.7,20.4,219.3L5.3,239.5l15.1,20.2
		c51.4,68.6,133.3,109.5,219.1,109.5s167.6-40.9,219.1-109.5l15.1-20.2L458.6,219.3z M450.7,242.6
		c-49.6,66.1-128.5,105.6-211.2,105.6S77.9,308.7,28.3,242.6l-2.3-3.1l2.3-3.1c49.6-66.1,128.5-105.6,211.2-105.6
		s161.6,39.5,211.2,105.6l2.3,3.1L450.7,242.6z"/>
	<path class="st0" d="M239.5,167.4c-39.7,0-72.1,32.3-72.1,72.1s32.3,72.1,72.1,72.1s72.1-32.3,72.1-72.1S279.2,167.4,239.5,167.4z
		 M239.5,296.2c-31.2,0-56.7-25.4-56.7-56.7s25.4-56.7,56.7-56.7s56.7,25.4,56.7,56.7S270.7,296.2,239.5,296.2z"/>
</g>
</svg>
