<?xml version="1.0" encoding="utf-8"?>
<!-- Generator: Adobe Illustrator 19.0.0, SVG Export Plug-In . SVG Version: 6.00 Build 0)  -->
<svg version="1.1" id="Capa_1" xmlns="http://www.w3.org/2000/svg" xmlns:xlink="http://www.w3.org/1999/xlink" x="0px" y="0px"
	 viewBox="-237 142 850 798" style="enable-background:new -237 142 850 798;" xml:space="preserve">
<style type="text/css">
	.st0{fill:#FFFFFF;}
	.st1{fill:#255867;}
</style>
<path class="st0" d="M188,116L188,116L188,116h-425v850h425c0,0,0,0,0,0c234.7,0,425-190.3,425-425S422.7,116,188,116z"/>
<g>
	<path class="st1" d="M69,607c4.8-2.8,6.4-8.9,3.7-13.7c-2.8-4.8-8.9-6.4-13.7-3.7c-4.8,2.8-6.4,8.9-3.7,13.7
		C58.1,608.1,64.2,609.8,69,607z"/>
	<path class="st1" d="M28,676l50.4,87.2c10.9,18.8,35.3,25.8,54.6,14.6c19.1-11.1,25.7-35.5,14.6-54.6l-30-52l26-15
		c4.8-2.8,6.4-8.9,3.7-13.7l-13-22.5c1.6-0.3,11.7-2.3,191.5-37.6c22.2-1.2,35.5-25.5,24.3-44.9L316.9,480l21.2-32.2
		c2.1-3.2,2.2-7.2,0.3-10.5l-20-34.6c-1.9-3.3-5.5-5.2-9.3-5l-38.5,2.3l-36.9-63.9c-5.3-9.3-14.9-14.9-25.6-15c-0.1,0-0.3,0-0.4,0
		c-10.3,0-19.7,5.1-25.3,13.8L51.9,501.4l-84.9,49c-33.4,19.3-45,62.1-25.6,95.6C-40.9,676.6-3.7,688.7,28,676z M130.3,733.2
		c5.5,9.6,2.3,21.8-7.3,27.3c-9.6,5.6-21.9,2.1-27.3-7.3l-50-86.6l34.6-20C138.2,746.9,129.4,731.6,130.3,733.2z M107.6,654
		l-10-17.3l17.3-10l10,17.3L107.6,654z M304.2,418L318,442l-12.3,18.7l-23.8-41.3L304.2,418z M199.3,345.9c2.7-4.4,6.9-4.8,8.7-4.8
		c1.7,0,6,0.6,8.5,5l116.3,201.5c3.8,6.6-0.8,14.8-8.4,15c-1.4,0-2,0.3-5.5,0.9l-123-213.1C198.4,347.1,198.8,346.7,199.3,345.9z
		 M182.6,367.3l115.6,200.2l-174.5,34.2l-53-91.9L182.6,367.3z M-41.3,636c-4.4-7.6-6.7-16.2-6.7-24.9c0-17.8,9.6-34.4,25-43.4
		l77.9-45l50,86.6l-77.9,45C3.1,668.1-27.5,659.9-41.3,636z"/>
	<path class="st1" d="M38,613.3c-2.8-4.8-8.9-6.4-13.7-3.7L7,619.7c-4.8,2.8-10.9,1.1-13.7-3.7c-2.8-4.8-8.9-6.4-13.7-3.7
		s-6.4,8.9-3.7,13.7c8.2,14.3,26.6,19.3,41,11l17.3-10C39.1,624.2,40.7,618.1,38,613.3z"/>
	<path class="st1" d="M429.1,342.5l-55.7,31c-4.8,2.7-6.6,8.8-3.9,13.6c2.7,4.8,8.8,6.6,13.6,3.9l55.7-31c4.8-2.7,6.6-8.8,3.9-13.6
		C440.1,341.5,434,339.8,429.1,342.5z"/>
	<path class="st1" d="M423.3,446.1l-38.6-10.4c-5.3-1.4-10.8,1.7-12.3,7.1s1.7,10.8,7.1,12.2l38.6,10.4c5.4,1.4,10.8-1.8,12.2-7.1
		C431.8,453,428.6,447.5,423.3,446.1z"/>
	<path class="st1" d="M326.2,306.2l-10.4,38.6c-1.4,5.3,1.7,10.8,7.1,12.3c5.3,1.4,10.8-1.7,12.3-7.1l10.4-38.6
		c1.4-5.3-1.7-10.8-7.1-12.3C333.1,297.7,327.6,300.8,326.2,306.2z"/>
</g>
</svg>
