<?xml version="1.0" encoding="utf-8"?>
<!-- Generator: Adobe Illustrator 19.0.0, SVG Export Plug-In . SVG Version: 6.00 Build 0)  -->
<svg version="1.1" id="Layer_1" xmlns="http://www.w3.org/2000/svg" xmlns:xlink="http://www.w3.org/1999/xlink" x="0px" y="0px"
	 viewBox="-409.5 253.9 138.2 54.3" style="enable-background:new -409.5 253.9 138.2 54.3;" xml:space="preserve">
<style type="text/css">
	.st0{fill:#D1C6AE;}
	.st1{fill:#5E8C98;}
	.st2{fill:#A8CBD3;}
	.st3{fill:#8BA192;}
	.st4{fill:#62524E;}
	.st5{fill:#2E3636;}
	.st6{fill:#454745;}
	.st7{fill:#63534E;}
	.st8{fill:#584C4B;}
</style>
<g>
	<g>
		<rect x="-409.5" y="278.3" class="st0" width="16.8" height="29.9"/>
		<rect x="-374.3" y="263.1" class="st1" width="16.8" height="39.1"/>
		<polygon class="st2" points="-397.8,253.9 -397.8,278.3 -392.7,278.3 -392.7,302.1 -388.2,302.1 -388.2,269.1 -380.9,269.1 
			-380.9,253.9 		"/>
		<rect x="-397.8" y="278.3" class="st3" width="5.1" height="23.9"/>
		<polygon class="st4" points="-367.1,308.1 -388.2,308.1 -388.2,302.1 -380.9,302.1 -380.9,269.1 -374.3,269.1 -374.3,302.1 
			-367.1,302.1 		"/>
		<rect x="-374.3" y="269.1" class="st5" width="7.2" height="33.1"/>
		<rect x="-388.2" y="269.1" class="st6" width="7.2" height="33.1"/>
	</g>
	<g>
		<g>
			<g>
				<g>
					<path class="st7" d="M-333.7,287.4c-1.6,1.6-3.5,2.3-5.8,2.3c-5.7,0-8-3.8-8-7.8c0-4,2.6-8,8-8c2,0,4,0.8,5.5,2.4l-1.9,1.8
						c-1-1-2.4-1.5-3.6-1.5c-3.6,0-5.2,2.7-5.2,5.2s1.5,5.1,5.2,5.1c1.4,0,2.8-0.6,3.7-1.6L-333.7,287.4z"/>
					<path class="st7" d="M-318.6,274.1v8.6c0,4.4-2.7,6.8-6.6,6.8c-3.6,0-6.7-2.3-6.7-6.8v-8.6h2.8v8.6c0,2.7,1.6,4.2,3.8,4.2
						c2.4,0,3.7-1.6,3.7-4.2v-8.6H-318.6z"/>
				</g>
			</g>
		</g>
		<g>
			<path class="st7" d="M-302,289.3h-3.4l-4.4-5.1h-2.7v5.1h-2.8v-15.2c2.4,0,4.7,0,7.2,0c3.5,0,5.4,2.4,5.4,5c0,2-0.9,4.2-3.8,4.7
				l4.5,5.2C-302,289.2-302,289.3-302,289.3z M-312.5,276.8v4.9h4.3c1.8,0,2.6-1.2,2.6-2.5s-0.8-2.5-2.6-2.5L-312.5,276.8
				L-312.5,276.8z"/>
			<path class="st7" d="M-295.9,276.7h-4.7v-2.6c4.3,0,8,0,12.4,0v2.6h-4.7v12.6h-2.8L-295.9,276.7L-295.9,276.7z"/>
		</g>
		<g>
			<path class="st7" d="M-271.2,281.8c0,3.8-2.5,7.8-7.8,7.8s-7.8-3.8-7.8-7.8c0-4,2.6-8,7.8-8
				C-273.8,273.9-271.2,277.9-271.2,281.8z M-283.9,281.8c0.1,2.5,1.4,5.1,5,5.1c3.6,0,4.9-2.7,5-5.2c0-2.6-1.4-5.4-5-5.4
				C-282.5,276.3-284,279.3-283.9,281.8z"/>
		</g>
	</g>
	<g>
		<path class="st8" d="M-342.7,299.5l0.7,0.7c-0.7,0.6-1.4,0.9-2.3,0.9c-0.6,0-1-0.1-1.4-0.2c-0.5-0.1-0.8-0.3-1-0.7
			c-0.2-0.3-0.5-0.7-0.6-1c-0.1-0.3-0.2-0.8-0.2-1.1c0-0.5,0.1-0.8,0.2-1.1c0.1-0.3,0.3-0.7,0.6-1c0.2-0.3,0.6-0.6,1-0.8
			c0.5-0.2,0.9-0.2,1.4-0.2c0.9,0,1.6,0.3,2.3,0.9l-0.7,0.7c-0.5-0.5-0.9-0.7-1.6-0.7c-0.8,0-1.2,0.2-1.7,0.7
			c-0.5,0.5-0.6,1-0.6,1.6c0,0.7,0.2,1.1,0.6,1.6c0.3,0.5,0.9,0.7,1.7,0.7c0.2,0,0.6,0,0.9-0.1C-343,300-342.8,299.7-342.7,299.5z"
			/>
		<path class="st8" d="M-335.8,294.7c1,0,1.8,0.3,2.3,0.9c0.6,0.7,0.8,1.4,0.8,2.3c0,0.5-0.1,0.8-0.2,1.1c-0.1,0.3-0.3,0.7-0.6,1
			c-0.2,0.3-0.6,0.6-1,0.7c-0.3,0.1-0.9,0.2-1.4,0.2c-0.5,0-1-0.1-1.4-0.2c-0.3-0.1-0.8-0.5-1-0.7c-0.2-0.3-0.5-0.7-0.6-1
			c-0.1-0.3-0.2-0.8-0.2-1.1c0-0.9,0.2-1.7,0.9-2.3C-337.4,295-336.7,294.7-335.8,294.7z M-338,298c0,0.2,0,0.6,0.1,0.8
			c0.1,0.2,0.2,0.5,0.3,0.7c0.1,0.2,0.3,0.3,0.7,0.5s0.6,0.2,1,0.2c0.7,0,1.2-0.2,1.6-0.7c0.3-0.5,0.6-0.9,0.6-1.6
			c0-0.3-0.1-0.8-0.2-1.1c-0.1-0.3-0.3-0.7-0.7-0.9c-0.3-0.2-0.8-0.3-1.2-0.3c-0.7,0-1.2,0.2-1.6,0.7
			C-337.7,296.7-338,297.2-338,298z"/>
		<path class="st8" d="M-320.5,294.8l-2.1,6.1h-0.9l-0.8-2.1l-0.7-2l-0.7,2l-0.8,2.1h-0.9l-2.1-6.1h1.1l1.6,4.6l1.6-4.6h0.7l1.6,4.6
			l1.5-4.6H-320.5z"/>
		<path class="st8" d="M-314.4,294.7c1,0,1.8,0.3,2.3,0.9c0.6,0.7,0.8,1.4,0.8,2.3c0,0.5-0.1,0.8-0.2,1.1c-0.1,0.3-0.3,0.7-0.6,1
			c-0.2,0.3-0.6,0.6-1,0.7c-0.3,0.1-0.9,0.2-1.4,0.2s-1-0.1-1.4-0.2s-0.8-0.5-1-0.7c-0.2-0.3-0.5-0.7-0.6-1
			c-0.1-0.3-0.2-0.8-0.2-1.1c0-0.9,0.2-1.7,0.9-2.3C-316,295-315.2,294.7-314.4,294.7z M-316.6,298c0,0.2,0,0.6,0.1,0.8
			c0.1,0.2,0.2,0.5,0.3,0.7c0.1,0.2,0.3,0.3,0.7,0.5c0.3,0.1,0.6,0.2,1,0.2c0.7,0,1.2-0.2,1.6-0.7c0.3-0.5,0.6-0.9,0.6-1.6
			c0-0.3-0.1-0.8-0.2-1.1c-0.1-0.3-0.3-0.7-0.7-0.9c-0.3-0.2-0.8-0.3-1.2-0.3c-0.7,0-1.2,0.2-1.6,0.7
			C-316.4,296.7-316.6,297.2-316.6,298z"/>
		<path class="st8" d="M-302.4,300.8l0.1,0.1h-1.1l-1.8-2.1h-1.2v2.1h-1v-6.1c0.3,0,0.8,0,1.4,0c0.7,0,1.1,0,1.4,0
			c0.7,0,1.2,0.2,1.6,0.6c0.3,0.3,0.6,0.9,0.6,1.4c0,0.5-0.1,0.9-0.3,1.2c-0.2,0.3-0.7,0.6-1.2,0.7L-302.4,300.8z M-304.7,295.7
			h-1.9v2.1h1.8c0.3,0,0.7-0.1,0.9-0.3c0.2-0.2,0.3-0.5,0.3-0.8c0-0.3-0.1-0.6-0.3-0.8C-304.1,295.8-304.4,295.7-304.7,295.7z"/>
		<path class="st8" d="M-294.2,294.8L-294.2,294.8l-2.8,2.9l3.1,3.1v0.1h-1.2l-2.7-2.8v2.8h-1v-6.1h1v2.6l2.5-2.6L-294.2,294.8
			L-294.2,294.8z"/>
		<path class="st8" d="M-289.7,300.9h-1v-6.1h1V300.9z"/>
		<path class="st8" d="M-284.9,294.8l3.4,4.3v-4.3h1v6.1h-0.8l-3.4-4.3v4.3h-1v-6.1H-284.9z"/>
		<path class="st8" d="M-271.4,295.6l-0.7,0.7c-0.2-0.2-0.5-0.3-0.8-0.5c-0.3-0.1-0.6-0.1-0.9-0.1c-0.7,0-1.2,0.2-1.7,0.7
			c-0.3,0.5-0.6,1-0.6,1.7s0.2,1.1,0.6,1.6c0.3,0.5,0.9,0.7,1.7,0.7c0.6,0,1-0.2,1.5-0.6v-1.2h-1.7v-0.9h2.6v2.5
			c-0.7,0.7-1.5,1-2.4,1c-0.6,0-1-0.1-1.5-0.2c-0.5-0.1-0.8-0.3-1-0.7c-0.2-0.2-0.5-0.7-0.6-1c-0.1-0.3-0.2-0.8-0.2-1.1
			c0-0.9,0.2-1.7,0.9-2.3c0.7-0.6,1.4-0.9,2.4-0.9C-272.7,294.7-272,295-271.4,295.6z"/>
	</g>
</g>
</svg>
