<svg version="1.1" id="Layer_1" xmlns="http://www.w3.org/2000/svg" xmlns:xlink="http://www.w3.org/1999/xlink" x="0px" y="0px"
	 viewBox="-374 117.9 209.2 326.1" style="enable-background:new -374 117.9 209.2 326.1;" xml:space="preserve">
<style type="text/css">
	.st0{fill:#C6BDA6;}
	.st1{fill:#5A8994;}
	.st2{fill:#9AC6CD;}
	.st3{fill:#819C8F;}
	.st4{fill:#584C4A;}
	.st5{fill:#273435;}
	.st6{fill:#3D4443;}
	.st7{clip-path:url(#SVGID_2_);}
	.st8{fill:#584C4B;}
</style>
<rect x="-373.4" y="215.7" class="st0" width="67.3" height="119.7"/>
<rect x="-232.7" y="154.8" class="st1" width="67.3" height="156.6"/>
<polygon class="st2" points="-326.5,117.9 -326.5,215.7 -306.1,215.7 -306.1,311.4 -288.1,311.4 -288.1,179 -259.2,179 
	-259.2,117.9 "/>
<rect x="-326.5" y="215.7" class="st3" width="20.4" height="95.7"/>
<polygon class="st4" points="-203.9,335.4 -288.1,335.4 -288.1,311.4 -259.2,311.4 -259.2,179 -232.7,179 -232.7,311.4 
	-203.9,311.4 "/>
<rect x="-232.7" y="179" class="st5" width="28.9" height="132.4"/>
<rect x="-288.1" y="179" class="st6" width="28.8" height="132.4"/>
<g>
	<g>
		<defs>
			<rect id="SVGID_1_" x="-374" y="117.9" width="209.1" height="326.1"/>
		</defs>
		<clipPath id="SVGID_2_">
			<use xlink:href="#SVGID_1_"  style="overflow:visible;"/>
		</clipPath>
		<g class="st7">
			<path class="st8" d="M-339.4,399.2l4.4,4.4c-4,4-9.1,6-15.2,6c-3.5,0-6.7-0.6-9.4-1.7c-2.7-1.1-5-2.7-6.7-4.7
				c-1.7-2-3-4.1-3.8-6.6c-0.9-2.4-1.3-5-1.3-7.7s0.4-5.3,1.3-7.8s2.2-4.7,3.9-6.7c1.7-2,3.9-3.6,6.7-4.8c2.8-1.2,5.9-1.8,9.4-1.8
				c5.8,0,10.7,2,14.7,6.1l-4.3,4.1c-2.8-2.8-6.3-4.1-10.4-4.1c-4.8,0-8.5,1.5-11.1,4.4c-2.6,3-3.8,6.5-3.8,10.5
				c0,4.1,1.3,7.5,3.8,10.4s6.2,4.3,11.1,4.3c1.9,0,3.8-0.4,5.8-1.2C-342.5,401.6-340.8,400.6-339.4,399.2z"/>
			<path class="st8" d="M-298.8,368.5h6.4v23.6c0,5.7-1.7,10.1-5,13.2c-3.3,3.1-7.5,4.5-12.6,4.3c-4.8-0.1-8.7-1.7-11.9-4.7
				c-3.2-3-4.8-7.3-4.8-12.7v-23.6h6.4v23.6c0,3.6,0.9,6.4,2.8,8.4s4.4,3.1,7.4,3.2c3.3,0.2,6-0.7,8.1-2.8c2.1-2.1,3.1-5,3.1-8.7
				v-23.8H-298.8z"/>
		</g>
	</g>
</g>
<g>
	<path class="st8" d="M-250.5,407.6l0.7,1.2h-7.5l-12.3-13.9h-8.5v13.9h-6.5v-40.4c2.1,0,5.2,0,9.4,0c4.2,0,7.3,0,9.4,0
		c4.5,0,7.9,1.3,10.5,3.9c2.5,2.6,3.8,5.7,3.8,9.3c0,3.2-0.9,5.9-2.7,8.3c-1.8,2.3-4.5,3.8-8.3,4.3L-250.5,407.6z M-265.8,374.3
		h-12.3v14.6h12.3c2.5,0,4.5-0.7,5.8-2.1c1.3-1.4,2-3.1,2-5.1s-0.7-3.7-2-5.2C-261.4,375.1-263.3,374.3-265.8,374.3z"/>
	<path class="st8" d="M-231,408.8v-34.5h-13.3v-5.8h33v5.8h-13.2v34.5H-231z"/>
</g>
<g>
	<path class="st8" d="M-187.9,367.7c6.5,0,11.6,2.1,15.2,6.2c3.6,4.1,5.4,9.1,5.4,14.9c0,2.8-0.4,5.4-1.3,7.9s-2.1,4.7-3.7,6.7
		c-1.6,2-3.8,3.5-6.5,4.6s-5.7,1.7-9.1,1.7c-3.4,0-6.4-0.6-9.1-1.8c-2.7-1.2-4.8-2.7-6.5-4.7c-1.6-2-2.9-4.2-3.7-6.6
		c-0.9-2.4-1.3-5-1.3-7.7c0-6.1,1.9-11.2,5.8-15.2C-199,369.7-194,367.7-187.9,367.7z M-202.3,388.9c0,1.8,0.3,3.6,0.9,5.3
		c0.6,1.7,1.4,3.3,2.5,4.7s2.6,2.6,4.5,3.5s4,1.3,6.4,1.3c4.7,0,8.3-1.4,10.7-4.2c2.4-2.8,3.6-6.3,3.6-10.6c0-2.6-0.5-5-1.4-7.3
		c-0.9-2.2-2.5-4.1-4.7-5.7s-4.9-2.4-8-2.4c-4.5,0-8.1,1.4-10.6,4.3C-201,380.7-202.3,384.4-202.3,388.9z"/>
</g>
<g>
	<path class="st8" d="M-356.3,433.4l1.7,1.7c-1.6,1.5-3.5,2.3-5.8,2.3c-1.4,0-2.6-0.2-3.6-0.7c-1.1-0.4-1.9-1-2.6-1.8
		c-0.7-0.8-1.1-1.6-1.5-2.5c-0.3-0.9-0.5-1.9-0.5-3s0.2-2.1,0.5-3c0.3-1,0.8-1.8,1.5-2.6c0.7-0.8,1.5-1.4,2.6-1.9s2.3-0.7,3.6-0.7
		c2.2,0,4.1,0.8,5.7,2.4l-1.7,1.6c-1.1-1.1-2.4-1.6-4-1.6c-1.9,0-3.3,0.6-4.3,1.7s-1.5,2.5-1.5,4.1s0.5,2.9,1.5,4s2.4,1.7,4.3,1.7
		c0.7,0,1.5-0.1,2.2-0.4C-357.5,434.4-356.8,434-356.3,433.4z"/>
	<path class="st8" d="M-338.6,421.3c2.5,0,4.5,0.8,5.8,2.4c1.4,1.6,2.1,3.5,2.1,5.7c0,1.1-0.2,2.1-0.5,3c-0.3,0.9-0.8,1.8-1.4,2.6
		c-0.6,0.8-1.5,1.4-2.5,1.8s-2.2,0.7-3.5,0.7c-1.3,0-2.5-0.2-3.5-0.7s-1.9-1.1-2.5-1.8c-0.6-0.8-1.1-1.6-1.4-2.5s-0.5-1.9-0.5-3
		c0-2.4,0.7-4.3,2.2-5.8C-342.8,422.1-340.9,421.3-338.6,421.3z M-344.1,429.5c0,0.7,0.1,1.4,0.3,2.1c0.2,0.7,0.5,1.3,1,1.8
		c0.4,0.6,1,1,1.7,1.3c0.7,0.3,1.5,0.5,2.5,0.5c1.8,0,3.2-0.5,4.1-1.6s1.4-2.4,1.4-4.1c0-1-0.2-1.9-0.5-2.8c-0.4-0.9-1-1.6-1.8-2.2
		c-0.9-0.6-1.9-0.9-3.1-0.9c-1.7,0-3.1,0.5-4.1,1.6S-344.1,427.7-344.1,429.5z"/>
	<path class="st8" d="M-299.8,421.6l-5.5,15.6h-2.2l-2.1-5.5l-1.7-5.2l-1.7,5.2l-2,5.5h-2.2l-5.6-15.6h2.8l4,12l4-12h1.6l4.1,12
		l3.9-12H-299.8z"/>
	<path class="st8" d="M-283.9,421.3c2.5,0,4.5,0.8,5.8,2.4c1.4,1.6,2.1,3.5,2.1,5.7c0,1.1-0.2,2.1-0.5,3s-0.8,1.8-1.4,2.6
		c-0.6,0.8-1.5,1.4-2.5,1.8s-2.2,0.7-3.5,0.7c-1.3,0-2.5-0.2-3.5-0.7s-1.9-1.1-2.5-1.8c-0.6-0.8-1.1-1.6-1.4-2.5
		c-0.3-0.9-0.5-1.9-0.5-3c0-2.4,0.7-4.3,2.2-5.8C-288.2,422.1-286.2,421.3-283.9,421.3z M-289.4,429.5c0,0.7,0.1,1.4,0.3,2.1
		c0.2,0.7,0.5,1.3,1,1.8c0.4,0.6,1,1,1.7,1.3c0.7,0.3,1.5,0.5,2.5,0.5c1.8,0,3.2-0.5,4.1-1.6c0.9-1.1,1.4-2.4,1.4-4.1
		c0-1-0.2-1.9-0.5-2.8c-0.4-0.9-1-1.6-1.8-2.2c-0.9-0.6-1.9-0.9-3.1-0.9c-1.7,0-3.1,0.5-4.1,1.6S-289.4,427.7-289.4,429.5z"/>
	<path class="st8" d="M-253.4,436.7l0.3,0.4h-2.9l-4.7-5.4h-3.3v5.4h-2.5v-15.6c0.8,0,2,0,3.6,0s2.8,0,3.6,0c1.7,0,3.1,0.5,4,1.5
		c1,1,1.5,2.2,1.5,3.6c0,1.2-0.3,2.3-1,3.2c-0.7,0.9-1.8,1.4-3.2,1.7L-253.4,436.7z M-259.3,423.9h-4.8v5.6h4.7c1,0,1.7-0.3,2.2-0.8
		s0.8-1.2,0.8-2s-0.3-1.4-0.8-2S-258.4,423.9-259.3,423.9z"/>
	<path class="st8" d="M-232.2,421.6L-232.2,421.6l-7.1,7.5l7.7,7.9v0.2h-3.1l-6.9-7.1v7.1h-2.5v-15.5h2.5v6.7l6.3-6.7h3.1V421.6z"/>
	<path class="st8" d="M-220.8,437.1h-2.5v-15.5h2.5V437.1z"/>
	<path class="st8" d="M-208.5,421.6l8.8,11.1v-11.1h2.5v15.5h-1.9l-8.8-11v11h-2.5v-15.5H-208.5z"/>
	<path class="st8" d="M-173.9,423.6l-1.6,1.6c-0.5-0.5-1.2-0.9-1.9-1.2c-0.8-0.3-1.5-0.4-2.3-0.4c-1.8,0-3.2,0.6-4.2,1.7
		c-1,1.2-1.5,2.6-1.5,4.3c0,1.6,0.5,2.9,1.4,4s2.4,1.6,4.3,1.6c1.4,0,2.7-0.5,3.8-1.4v-3.2h-4.3v-2.2h6.6v6.4
		c-1.6,1.8-3.7,2.7-6.1,2.7c-1.4,0-2.6-0.2-3.7-0.7c-1.1-0.4-1.9-1-2.6-1.8c-0.6-0.7-1.1-1.6-1.4-2.5c-0.3-0.9-0.5-1.9-0.5-3
		c0-2.4,0.7-4.3,2.2-5.9s3.4-2.4,6-2.4C-177.4,421.2-175.5,422-173.9,423.6z"/>
</g>
</svg>
