<?xml version="1.0" encoding="utf-8"?>
<!-- Generator: Adobe Illustrator 19.0.0, SVG Export Plug-In . SVG Version: 6.00 Build 0)  -->
<svg version="1.1" id="Layer_1" xmlns="http://www.w3.org/2000/svg" xmlns:xlink="http://www.w3.org/1999/xlink" x="0px" y="0px"
	 viewBox="34.8 419.4 306.4 243.1" style="enable-background:new 34.8 419.4 306.4 243.1;" xml:space="preserve">
<style type="text/css">
	.st0{fill:#457987;}
</style>
<g>
	<path class="st0" d="M192.4,552.1c-0.4-0.1-0.9-0.1-1.4,0c-4.5-0.5-7.9-4.3-7.9-8.9c0-2.2-1.8-3.9-3.9-3.9c-2.2,0-3.9,1.8-3.9,3.9
		c0,7.6,5.1,14.2,12.4,16.3v3.9c0,2.2,1.8,3.9,3.9,3.9s3.9-1.8,3.9-3.9v-3.7c8.5-1.8,14.2-9.6,13.3-18.2
		c-0.9-8.6-8.1-15.1-16.8-15.1c-4.9,0-9-4-9-9s4-9,9-9s9,4,9,9c0,2.2,1.8,3.9,3.9,3.9s3.9-1.8,3.9-3.9c0-8-5.6-14.9-13.4-16.5v-3.6
		c0-2.2-1.8-3.9-3.9-3.9s-3.9,1.8-3.9,3.9v3.8c-8.1,2.2-13.4,10.1-12.3,18.5c1.1,8.4,8.3,14.6,16.7,14.6c4.9,0,8.9,3.9,9,8.8
		C201.2,547.8,197.3,551.9,192.4,552.1z"/>
	<path class="st0" d="M134.9,530.5c0,31.6,25.6,57.2,57.2,57.2s57.2-25.6,57.2-57.2s-25.6-57.2-57.2-57.2
		C160.5,473.3,134.9,498.9,134.9,530.5z M192.1,481.2c27.3,0,49.3,22.1,49.3,49.3c0,27.3-22.1,49.3-49.3,49.3s-49.3-22.1-49.3-49.3
		C142.8,503.3,164.9,481.2,192.1,481.2z"/>
	<path class="st0" d="M268.8,597.5l-30.9,14.6c-4.3-7.9-12.5-13-21.5-13.2l-28.5-0.8c-4.5-0.1-9-1.3-13-3.3l-2.9-1.5
		c-14.9-7.8-32.6-7.7-47.5,0.1l0.2-6.6c0.1-2.2-1.7-4-3.8-4.1l-31.3-0.9c-2.2-0.1-4,1.7-4.1,3.8l-1.9,68.7c-0.1,2.2,1.7,4,3.8,4.1
		l31.3,0.9h0.1c2.1,0,3.9-1.7,3.9-3.8l0.1-3.3l8.1-4.4c3.2-1.7,6.9-2.1,10.4-1.1l48.6,13.6c0.1,0,0.2,0,0.3,0.1
		c3.5,0.7,7.1,1.1,10.7,1.1c7.6,0,15.1-1.6,22-4.8c0.2-0.1,0.3-0.2,0.5-0.3l70.4-45.5c1.8-1.1,2.3-3.4,1.3-5.3
		C289.9,596.2,278.3,592.7,268.8,597.5z M91.7,650.5l1.7-60.8l23.4,0.6l-1.7,60.8L91.7,650.5z M219.4,649.5
		c-8.6,3.9-18.2,4.9-27.4,3.1L143.6,639c-5.5-1.5-11.3-0.9-16.3,1.8l-4.2,2.2l1.1-40.4c13.2-8.8,30.1-9.7,44.1-2.4l2.9,1.5
		c5.1,2.6,10.7,4.1,16.4,4.2l28.5,0.8c8,0.2,14.8,5.9,16.5,13.8l-42.5-1.2c-2.2-0.1-4,1.7-4.1,3.8c-0.1,2.2,1.7,4,3.8,4.1l46.9,1.3
		h0.1c2.1,0,3.9-1.7,3.9-3.8c0-1.7-0.1-3.4-0.4-5.1l31.7-15c0,0,0.1,0,0.1,0c4.5-2.3,9.9-1.5,13.6,1.9L219.4,649.5z"/>
	<path class="st0" d="M196.1,462.2v-37.5c0-2.2-1.8-3.9-3.9-3.9s-3.9,1.8-3.9,3.9v37.5c0,2.2,1.8,3.9,3.9,3.9
		S196.1,464.4,196.1,462.2z"/>
	<path class="st0" d="M225.7,462.2v-17.8c0-2.2-1.8-3.9-3.9-3.9c-2.2,0-3.9,1.8-3.9,3.9v17.8c0,2.2,1.8,3.9,3.9,3.9
		C223.9,466.1,225.7,464.4,225.7,462.2z"/>
	<path class="st0" d="M166.5,462.2v-17.8c0-2.2-1.8-3.9-3.9-3.9s-3.9,1.8-3.9,3.9v17.8c0,2.2,1.8,3.9,3.9,3.9
		S166.5,464.4,166.5,462.2z"/>
</g>
</svg>
