<?xml version="1.0" encoding="utf-8"?>
<!-- Generator: Adobe Illustrator 19.0.0, SVG Export Plug-In . SVG Version: 6.00 Build 0)  -->
<svg version="1.1" id="Layer_1" xmlns="http://www.w3.org/2000/svg" xmlns:xlink="http://www.w3.org/1999/xlink" x="0px" y="0px"
	 viewBox="112.4 465.4 151.2 151.2" style="enable-background:new 112.4 465.4 151.2 151.2;" xml:space="preserve">
<style type="text/css">
	.st0{fill:#FFFFFF;}
</style>
<g>
	<g>
		<g>
			<path class="st0" d="M223.6,531.6h-56V506c0-3.8,1.5-7.3,4.2-10c2.7-2.6,6.3-4.1,10-4c7.5,0.1,13.7,6.5,13.7,14.2v2.1
				c0,7.3,6,13.3,13.3,13.3c7.3,0,13.3-6,13.3-13.3V506c0-10.9-4.3-21.1-12-28.8c-7.7-7.6-17.8-11.8-28.5-11.8c-0.1,0-0.3,0-0.4,0
				c-22.2,0.2-40.2,18.6-40.2,41v25.1h-1.5c-7.2,0-13.1,5.9-13.1,13.1v59.4c0,7.2,5.9,13.1,13.1,13.1h84.1c7.2,0,13.1-5.9,13.1-13.1
				v-59.4C236.7,537.5,230.8,531.6,223.6,531.6z M146.4,506.7c0-19.5,15.6-35.4,34.8-35.6c0.1,0,0.2,0,0.3,0
				c9.3,0,18.1,3.6,24.7,10.2c6.7,6.7,10.4,15.5,10.4,25v2.6c0,4-3.7,7.1-7.1,7.1c-3.4,0-8.1-2.1-8.1-7.1v-2.3
				c0-12.6-9.6-20.3-19.5-20.3c-6.2-0.1-10.9,1.5-15.3,5.8c-4.4,4.4-5.1,9.7-5.1,15.9v23.9h-15.2V506.7L146.4,506.7z M230.8,605.1
				c0,3.1-2.6,5.7-5.7,5.7h-87c-3.1,0-5.7-2.6-5.7-5.7v-61.4c0-3.1,2.6-5.7,5.7-5.7h87c3.1,0,5.7,2.6,5.7,5.7L230.8,605.1
				L230.8,605.1z"/>
			<path class="st0" d="M181.4,546.7c-9.4,0-17,7.6-17,17c0,4.8,2.1,9.4,5.6,12.6v22c0,2.1,1.7,3.8,3.8,3.8H189
				c2.1,0,3.8-1.7,3.8-3.8v-22c3.5-3.2,5.6-7.8,5.6-12.6C198.4,554.3,190.8,546.7,181.4,546.7z M188.4,572c-1.1,0.8-1.8,2.1-1.8,3.4
				v22.2h-10.4v-22.2c0-1.4-0.7-2.6-1.8-3.4c-2.8-1.9-3.4-5.1-3.4-8.5c0-5.7,4.7-10.4,10.4-10.4c5.7,0,10.4,4.7,10.4,10.4
				C191.8,566.9,191.2,570.1,188.4,572z"/>
			<path class="st0" d="M249.7,529.5l-13.3-7.7c-1.8-1.1-3.8-0.9-4.9,0.9c-1.1,1.8-0.2,3.9,1.6,4.9l13.3,7.7
				c0.6,0.3,1.3,0.5,1.9,0.5c1.3,0,2.2-0.3,2.9-1.5C252.3,532.6,251.5,530.6,249.7,529.5z"/>
			<path class="st0" d="M233.7,513c0.6,0,1.3-0.2,1.9-0.5l13.3-7.7c1.8-1.1,2.8-3,1.8-4.8c-1.1-1.8-3-2.1-4.8-1l-13.3,7.7
				c-1.8,1.1-2.9,2.9-1.9,4.7C231.4,512.6,232.4,513,233.7,513z"/>
		</g>
	</g>
</g>
</svg>
