<?xml version="1.0" encoding="utf-8"?>
<!-- Generator: Adobe Illustrator 19.0.0, SVG Export Plug-In . SVG Version: 6.00 Build 0)  -->
<svg version="1.1" id="Layer_1" xmlns="http://www.w3.org/2000/svg" xmlns:xlink="http://www.w3.org/1999/xlink" x="0px" y="0px"
	 viewBox="111.4 465.4 153.5 153.5" style="enable-background:new 111.4 465.4 153.5 153.5;" xml:space="preserve">
<style type="text/css">
	.st0{fill:#FFFFFF;}
</style>
<g>
	<g>
		<path class="st0" d="M188.1,465.4c-42.3,0-76.8,34.4-76.8,76.8s34.4,76.8,76.8,76.8s76.8-34.4,76.8-76.8S230.5,465.4,188.1,465.4z
			 M188.1,612.1c-38.6,0-70-31.4-70-70s31.4-70,70-70s70,31.4,70,70S226.7,612.1,188.1,612.1z"/>
		<path class="st0" d="M190.6,532.2v-25.4c0-1.4-1.1-2.5-2.5-2.5s-2.5,1.1-2.5,2.5v25.4c-3.5,0.9-6.2,3.6-7.1,7.1h-17.9
			c-1.4,0-2.5,1.1-2.5,2.5s1.1,2.5,2.5,2.5h17.9c1.1,4.3,5,7.5,9.6,7.5c5.5,0,10-4.5,10-10C198.1,537.2,194.9,533.3,190.6,532.2z
			 M188.1,546.8c-2.8,0-5-2.2-5-5s2.2-5,5-5s5,2.2,5,5S190.9,546.8,188.1,546.8z"/>
		<path class="st0" d="M188.1,491.8c1.4,0,2.5-1.1,2.5-2.5v-2.5c0-1.4-1.1-2.5-2.5-2.5s-2.5,1.1-2.5,2.5v2.5
			C185.6,490.7,186.8,491.8,188.1,491.8z"/>
		<path class="st0" d="M188.1,591.8c-1.4,0-2.5,1.1-2.5,2.5v2.5c0,1.4,1.1,2.5,2.5,2.5s2.5-1.1,2.5-2.5v-2.5
			C190.6,593,189.5,591.8,188.1,591.8z"/>
		<path class="st0" d="M243.1,539.3h-2.5c-1.4,0-2.5,1.1-2.5,2.5s1.1,2.5,2.5,2.5h2.5c1.4,0,2.5-1.1,2.5-2.5
			S244.5,539.3,243.1,539.3z"/>
		<path class="st0" d="M135.6,539.3h-2.5c-1.4,0-2.5,1.1-2.5,2.5s1.1,2.5,2.5,2.5h2.5c1.4,0,2.5-1.1,2.5-2.5S137,539.3,135.6,539.3z
			"/>
		<path class="st0" d="M225.3,501.2l-1.8,1.8c-1,1-1,2.6,0,3.5c0.5,0.5,1.1,0.7,1.8,0.7s1.3-0.2,1.8-0.7l1.8-1.8c1-1,1-2.6,0-3.5
			S226.2,500.2,225.3,501.2z"/>
		<path class="st0" d="M149.3,577.2l-1.8,1.8c-1,1-1,2.6,0,3.5c0.5,0.5,1.1,0.7,1.8,0.7s1.3-0.2,1.8-0.7l1.8-1.8c1-1,1-2.6,0-3.5
			C151.8,576.2,150.2,576.2,149.3,577.2z"/>
		<path class="st0" d="M227,577.2c-1-1-2.6-1-3.5,0c-1,1-1,2.6,0,3.5l1.8,1.8c0.5,0.5,1.1,0.7,1.8,0.7s1.3-0.2,1.8-0.7
			c1-1,1-2.6,0-3.5L227,577.2z"/>
		<path class="st0" d="M151,501.2c-1-1-2.6-1-3.5,0s-1,2.6,0,3.5l1.8,1.8c0.5,0.5,1.1,0.7,1.8,0.7s1.3-0.2,1.8-0.7c1-1,1-2.6,0-3.5
			L151,501.2z"/>
	</g>
</g>
</svg>
