<?xml version="1.0" encoding="utf-8"?>
<!-- Generator: Adobe Illustrator 19.0.0, SVG Export Plug-In . SVG Version: 6.00 Build 0)  -->
<svg version="1.1" id="Layer_1" xmlns="http://www.w3.org/2000/svg" xmlns:xlink="http://www.w3.org/1999/xlink" x="0px" y="0px"
	 viewBox="99.5 452.5 177 177" style="enable-background:new 99.5 452.5 177 177;" xml:space="preserve">
<style type="text/css">
	.st0{fill:#457987;}
</style>
<g>
	<g id="SVGCleanerId_0_1_">
		<g>
			<path class="st0" d="M225.7,555H152c-1.6,0-2.8,1.3-2.8,2.8v62.3c0,1.6,1.3,2.8,2.8,2.8h73.7c1.6,0,2.8-1.3,2.8-2.8v-62.3
				C228.5,556.2,227.3,555,225.7,555z M222.9,617.3h-68v-56.7h68L222.9,617.3L222.9,617.3z"/>
		</g>
	</g>
	<g>
		<g>
			<path class="st0" d="M225.7,555H152c-1.6,0-2.8,1.3-2.8,2.8v62.3c0,1.6,1.3,2.8,2.8,2.8h73.7c1.6,0,2.8-1.3,2.8-2.8v-62.3
				C228.5,556.2,227.3,555,225.7,555z M222.9,617.3h-68v-56.7h68L222.9,617.3L222.9,617.3z"/>
		</g>
	</g>
	<g>
		<g>
			<path class="st0" d="M152,555h-45.3c-1.6,0-2.8,1.3-2.8,2.8v62.3c0,1.6,1.3,2.8,2.8,2.8H152c1.6,0,2.8-1.3,2.8-2.8v-62.3
				C154.9,556.2,153.6,555,152,555z M149.2,617.3h-39.7v-56.7h39.7L149.2,617.3L149.2,617.3z"/>
		</g>
	</g>
	<g>
		<g>
			<path class="st0" d="M271,555h-45.3c-1.6,0-2.8,1.3-2.8,2.8v62.3c0,1.6,1.3,2.8,2.8,2.8H271c1.6,0,2.8-1.3,2.8-2.8v-62.3
				C273.9,556.2,272.6,555,271,555z M268.2,617.3h-39.7v-56.7h39.7L268.2,617.3L268.2,617.3z"/>
		</g>
	</g>
	<g>
		<g>
			<path class="st0" d="M214.4,577.6h-51c-1.6,0-2.8,1.3-2.8,2.8v28.3c0,1.6,1.3,2.8,2.8,2.8h51c1.6,0,2.8-1.3,2.8-2.8v-28.3
				C217.2,578.9,215.9,577.6,214.4,577.6z M211.5,606h-45.3v-22.7h45.3L211.5,606L211.5,606z"/>
		</g>
	</g>
	<g>
		<g>
			<rect x="191.7" y="566.3" class="st0" width="5.7" height="5.7"/>
		</g>
	</g>
	<g>
		<g>
			<rect x="180.4" y="566.3" class="st0" width="5.7" height="5.7"/>
		</g>
	</g>
	<g>
		<g>
			<rect x="169" y="566.3" class="st0" width="5.7" height="5.7"/>
		</g>
	</g>
	<g>
		<g>
			<rect x="203" y="566.3" class="st0" width="5.7" height="5.7"/>
		</g>
	</g>
	<g>
		<g>
			<rect x="106.7" y="577.6" class="st0" width="45.3" height="5.7"/>
		</g>
	</g>
	<g>
		<g>
			<rect x="123.7" y="566.3" class="st0" width="11.3" height="5.7"/>
		</g>
	</g>
	<g>
		<g>
			<rect x="123.7" y="589" class="st0" width="11.3" height="5.7"/>
		</g>
	</g>
	<g>
		<g>
			<rect x="225.7" y="577.6" class="st0" width="45.3" height="5.7"/>
		</g>
	</g>
	<g>
		<g>
			<rect x="245.5" y="580.5" class="st0" width="5.7" height="39.7"/>
		</g>
	</g>
	<g>
		<g>
			<rect x="242.7" y="566.3" class="st0" width="11.3" height="5.7"/>
		</g>
	</g>
	<g>
		<g>
			<rect x="234.2" y="594.6" class="st0" width="5.7" height="8.5"/>
		</g>
	</g>
	<g>
		<g>
			<rect x="256.9" y="594.6" class="st0" width="5.7" height="8.5"/>
		</g>
	</g>
	<g>
		<g>
			<path class="st0" d="M224.9,507.2l-10.5-10.5v-32.8c0-1.6-1.3-2.8-2.8-2.8h-45.3c-1.6,0-2.8,1.3-2.8,2.8v32.8l-10.5,10.5
				c-0.8,0.8-1.1,2-0.6,3.1c0.4,1.1,1.5,1.7,2.6,1.7h68c1.1,0,2.2-0.7,2.6-1.7C225.9,509.2,225.7,508,224.9,507.2z M161.7,506.3
				l6.5-6.5c0.5-0.5,0.8-1.3,0.8-2v-31.2h39.7v31.2c0,0.8,0.3,1.5,0.8,2l6.5,6.5L161.7,506.3L161.7,506.3z"/>
		</g>
	</g>
	<g>
		<g>
			<path class="st0" d="M256.9,515.3c-6.3,0-11.3,5.1-11.3,11.3v2.8h5.7v-2.8c0-3.1,2.5-5.7,5.7-5.7c3.1,0,5.7,2.5,5.7,5.7v31.2h5.7
				v-31.2C268.2,520.4,263.1,515.3,256.9,515.3z"/>
		</g>
	</g>
	<g>
		<g>
			<rect x="256.9" y="543.6" class="st0" width="8.5" height="5.7"/>
		</g>
	</g>
	<g>
		<g>
			<path class="st0" d="M186,538h-28.3c-1.6,0-2.8,1.3-2.8,2.8v17c0,1.6,1.3,2.8,2.8,2.8H186c1.6,0,2.8-1.3,2.8-2.8v-17
				C188.9,539.2,187.6,538,186,538z M183.2,555h-22.7v-11.3h22.7V555z"/>
		</g>
	</g>
	<g>
		<g>
			<rect x="149.2" y="543.6" class="st0" width="8.5" height="5.7"/>
		</g>
	</g>
	<g>
		<g>
			<rect x="186" y="543.6" class="st0" width="8.5" height="5.7"/>
		</g>
	</g>
	<g>
		<g>
			<path class="st0" d="M152,461h-45.3c-1.6,0-2.8,1.3-2.8,2.8v34c0,1.6,1.3,2.8,2.8,2.8H152c1.6,0,2.8-1.3,2.8-2.8v-34
				C154.9,462.3,153.6,461,152,461z M149.2,495h-39.7v-28.3h39.7L149.2,495L149.2,495z"/>
		</g>
	</g>
	<g>
		<g>
			<rect x="137.9" y="478" class="st0" width="5.7" height="11.3"/>
		</g>
	</g>
	<g>
		<g>
			<path class="st0" d="M271,461h-45.3c-1.6,0-2.8,1.3-2.8,2.8v34c0,1.6,1.3,2.8,2.8,2.8H271c1.6,0,2.8-1.3,2.8-2.8v-34
				C273.9,462.3,272.6,461,271,461z M268.2,495h-39.7v-28.3h39.7L268.2,495L268.2,495z"/>
		</g>
	</g>
	<g>
		<g>
			<rect x="234.2" y="478" class="st0" width="5.7" height="11.3"/>
		</g>
	</g>
</g>
</svg>
