<?xml version="1.0" encoding="utf-8"?>
<!-- Generator: Adobe Illustrator 19.0.0, SVG Export Plug-In . SVG Version: 6.00 Build 0)  -->
<svg version="1.1" id="Layer_1" xmlns="http://www.w3.org/2000/svg" xmlns:xlink="http://www.w3.org/1999/xlink" x="0px" y="0px"
	 viewBox="99.5 452.5 177 177" style="enable-background:new 99.5 452.5 177 177;" xml:space="preserve">
<style type="text/css">
	.st0{fill:#457987;}
</style>
<g>
	<g>
		<g>
			<path class="st0" d="M180.3,492.9l-16-4.3c-1.7-0.5-3.7-0.1-5.1,1c-1.1,0.8-1.7,2-1.9,3.3l-1.8,6.6c-0.5,1.2-0.5,2.6,0,3.9
				c0.2,0.4,0.4,0.8,0.7,1.2c-1.7,3.5-3.6,7.9-5.7,12.7c0,0,0,0,0,0c-1.8,4.2-3.6,8.8-5.4,13.6c-6.2,1.7-14.1,8.9-16.4,17.5
				l-15.2,56.8c-1.5,5.5,2.1,11.2,8,12.8l15.6,4.2l0,0l15.6,4.2c1,0.3,2,0.4,3.1,0.4c1.8,0,3.5-0.4,5.1-1.2c2.6-1.3,4.4-3.5,5.2-6.3
				l2.1-7.8c0,0,0,0,0,0c0,0,0,0,0,0l13.1-49c2.3-8.6-0.9-18.8-5.4-23.4c1.1-7.2,2.1-14.1,2.8-20.1c0,0,0,0,0-0.1
				c0.3-3,0.6-5.8,0.8-8.2c1.4-0.7,2.6-2,3-3.7l1.9-7.2C185.1,496.8,183.3,493.7,180.3,492.9z M159.6,617.6
				c-0.2,0.9-0.9,1.6-1.8,2.1c-1,0.5-2.2,0.6-3.4,0.3l-15.6-4.2c0,0,0,0,0,0l-15.6-4.2c-2.3-0.6-3.8-2.7-3.3-4.6l1.2-4.6l39.7,10.6
				L159.6,617.6z M162.6,606.5l-39.7-10.6l11.4-42.6l39.7,10.6L162.6,606.5z M175.4,557.4l-39-10.5c2.9-5.7,8.7-9.8,11.3-9.9
				c1.3,0,2.5-0.9,3-2.1c1.7-4.6,3.5-9,5.2-13.1h15.7c-0.5,4.5-1.2,9.3-2,14.4l-0.8-0.2c-1.8-0.5-3.6,0.6-4.1,2.3
				c-0.5,1.8,0.6,3.6,2.3,4.1l3.8,1C173,545.2,175.7,551.4,175.4,557.4z M176.2,504.5C176.2,504.5,176.1,504.5,176.2,504.5
				c-0.1,0-0.1,0-0.2,0c-0.1,0-0.2,0-0.2,0c0,0-0.1,0-0.1,0c-0.1,0-0.2,0-0.2,0c0,0,0,0-0.1,0c-0.1,0-0.2,0.1-0.3,0.1
				c0,0-0.1,0-0.1,0c-0.1,0-0.1,0-0.2,0.1c0,0-0.1,0-0.1,0.1c-0.1,0-0.1,0.1-0.2,0.1c0,0-0.1,0-0.1,0.1c-0.1,0-0.1,0.1-0.2,0.1
				c0,0-0.1,0-0.1,0.1c-0.1,0.1-0.1,0.1-0.2,0.2c0,0,0,0,0,0c-0.1,0.1-0.1,0.1-0.2,0.2c0,0,0,0,0,0c-0.1,0.1-0.1,0.1-0.2,0.2
				c0,0,0,0.1-0.1,0.1c0,0.1-0.1,0.1-0.1,0.2c0,0,0,0.1-0.1,0.1c0,0.1-0.1,0.1-0.1,0.2c0,0,0,0.1-0.1,0.1c0,0.1,0,0.1-0.1,0.2
				c0,0,0,0.1,0,0.1c0,0.1-0.1,0.2-0.1,0.2c0,0.1,0,0.2-0.1,0.3c0,0,0,0,0,0.1c0,0,0,0,0,0c0,0.1,0,0.2,0,0.3
				c-0.1,2.2-0.3,4.7-0.6,7.6h-13.6c1.7-3.9,3.3-7.4,4.7-10.1c0-0.1,0.1-0.2,0.1-0.3c0,0,0,0,0,0c0,0,0,0,0-0.1
				c0-0.1,0.1-0.2,0.1-0.3c0-0.1,0-0.2,0.1-0.3c0,0,0-0.1,0-0.1c0-0.1,0-0.1,0-0.2c0,0,0-0.1,0-0.1c0-0.1,0-0.1,0-0.2
				c0,0,0-0.1,0-0.1c0-0.1,0-0.1,0-0.2c0,0,0-0.1,0-0.1c0-0.1,0-0.2,0-0.3c0,0,0,0,0,0c0-0.1-0.1-0.2-0.1-0.3c0,0,0,0,0,0
				c0-0.1-0.1-0.2-0.1-0.3c0,0,0-0.1,0-0.1c0-0.1-0.1-0.1-0.1-0.2c0,0,0-0.1-0.1-0.1c0-0.1-0.1-0.1-0.1-0.1c0,0,0-0.1-0.1-0.1
				c0-0.1-0.1-0.1-0.1-0.2c0,0,0-0.1-0.1-0.1c-0.1-0.1-0.1-0.1-0.2-0.2c0,0,0,0-0.1-0.1c-0.1-0.1-0.1-0.1-0.2-0.1c0,0-0.1,0-0.1-0.1
				c-0.1,0-0.1-0.1-0.2-0.1c0,0,0,0-0.1,0c0,0,0,0-0.1,0l1.5-5.5l14.1,3.8L176.2,504.5z"/>
		</g>
	</g>
	<g>
		<g>
			<path class="st0" d="M159.3,533.5L159.3,533.5c-1.8-0.5-3.7,0.6-4.1,2.3c-0.5,1.8,0.6,3.6,2.4,4.1l0.1,0c0.3,0.1,0.6,0.1,0.9,0.1
				c1.5,0,2.8-1,3.2-2.5C162.1,535.8,161,534,159.3,533.5z"/>
		</g>
	</g>
	<g>
		<g>
			<path class="st0" d="M159.3,573.6c-1.7-2.9-4.4-5-7.6-5.8c-1.1-0.3-2.2-0.4-3.2-0.4c-5.7,0-10.6,3.8-12.1,9.3
				c-0.9,3.2-0.4,6.6,1.3,9.5c1.7,2.9,4.4,5,7.6,5.8c1.1,0.3,2.2,0.4,3.2,0.4c5.7,0,10.6-3.8,12.1-9.3
				C161.4,579.9,161,576.5,159.3,573.6z M154.1,581.4c-0.7,2.6-3,4.4-5.7,4.4c-0.5,0-1-0.1-1.5-0.2c-1.5-0.4-2.8-1.4-3.6-2.7
				c-0.8-1.4-1-2.9-0.6-4.5c0.7-2.6,3-4.4,5.7-4.4c0.5,0,1,0.1,1.5,0.2c1.5,0.4,2.8,1.4,3.6,2.7
				C154.3,578.3,154.5,579.9,154.1,581.4z"/>
		</g>
	</g>
	<g>
		<g>
			<path class="st0" d="M265.6,605.2l-15.2-56.8c-2.3-8.6-10.2-15.8-16.4-17.5c-1.8-4.7-3.7-9.3-5.4-13.6c0,0,0,0,0,0
				c-2-4.8-4-9.2-5.7-12.7c0.3-0.4,0.5-0.8,0.7-1.2c0.5-1.3,0.5-2.7,0-3.9l-1.8-6.6c-0.1-1.3-0.8-2.5-1.9-3.3
				c-1.4-1.1-3.4-1.5-5.1-1l-16,4.3c-1.5,0.4-2.7,1.3-3.4,2.6c-0.8,1.3-1,2.8-0.6,4.3l1.9,7.2c0.4,1.7,1.6,3,3,3.7
				c0.2,2.4,0.4,5.2,0.8,8.2c0,0,0,0,0,0.1c0.7,6,1.6,12.9,2.8,20.1c-4.5,4.6-7.8,14.8-5.4,23.4l15.2,56.8c0.7,2.7,2.6,4.9,5.2,6.3
				c1.6,0.8,3.3,1.2,5.1,1.2c1,0,2.1-0.1,3.1-0.4l31.2-8.4c2.8-0.7,5.1-2.4,6.7-4.8C265.8,610.7,266.3,607.9,265.6,605.2z
				 M203.4,504.6c0,0-0.1,0-0.1,0c-0.1,0-0.1,0-0.2,0c0,0-0.1,0-0.1,0c0,0,0,0-0.1,0l-1.5-5.5l14.1-3.8l1.5,5.5c0,0,0,0-0.1,0
				c0,0,0,0-0.1,0c-0.1,0-0.1,0.1-0.2,0.1c0,0-0.1,0-0.1,0.1c-0.1,0-0.1,0.1-0.2,0.1c0,0,0,0-0.1,0.1c-0.1,0.1-0.1,0.1-0.2,0.2
				c0,0,0,0.1-0.1,0.1c0,0-0.1,0.1-0.1,0.1c0,0,0,0.1-0.1,0.1c0,0-0.1,0.1-0.1,0.1c0,0,0,0.1-0.1,0.1c0,0.1-0.1,0.1-0.1,0.2
				c0,0,0,0.1,0,0.1c0,0.1-0.1,0.2-0.1,0.2c0,0,0,0,0,0c0,0.1-0.1,0.2-0.1,0.3c0,0,0,0,0,0c0,0.1,0,0.2,0,0.2c0,0,0,0.1,0,0.1
				c0,0.1,0,0.1,0,0.2c0,0,0,0.1,0,0.1c0,0.1,0,0.1,0,0.2c0,0,0,0.1,0,0.1c0,0.1,0,0.1,0,0.2c0,0,0,0.1,0,0.1c0,0.1,0,0.2,0.1,0.3
				c0,0.1,0.1,0.2,0.1,0.3c0,0,0,0,0,0.1c0,0,0,0,0,0c0,0.1,0.1,0.2,0.1,0.3c1.4,2.7,3,6.2,4.7,10.1h-13.6c-0.3-2.8-0.5-5.4-0.6-7.6
				c0-0.1,0-0.2,0-0.3c0,0,0,0,0,0c0,0,0,0,0-0.1c0-0.1,0-0.2-0.1-0.3c0-0.1-0.1-0.2-0.1-0.3c0,0,0-0.1,0-0.1c0-0.1,0-0.1-0.1-0.2
				c0,0,0-0.1-0.1-0.1c0-0.1-0.1-0.1-0.1-0.2c0,0,0-0.1-0.1-0.1c0-0.1-0.1-0.1-0.1-0.2c0,0,0-0.1-0.1-0.1c0-0.1-0.1-0.1-0.1-0.2
				c0,0,0,0,0-0.1c-0.1-0.1-0.1-0.1-0.2-0.2c0,0-0.1,0-0.1-0.1c0,0-0.1-0.1-0.1-0.1c0,0-0.1-0.1-0.1-0.1c0,0-0.1,0-0.1-0.1
				c0,0-0.1-0.1-0.2-0.1c0,0-0.1,0-0.1,0c-0.1,0-0.1-0.1-0.2-0.1c0,0,0,0-0.1,0c-0.2-0.1-0.4-0.2-0.6-0.2
				C203.5,504.6,203.5,504.6,203.4,504.6z M208.3,543.5l3.8-1c1.8-0.5,2.8-2.3,2.3-4.1c-0.5-1.8-2.3-2.8-4.1-2.3l-0.8,0.2
				c-0.8-5-1.5-9.9-2-14.4h15.7c1.7,4.1,3.5,8.5,5.2,13.1c0.5,1.3,1.7,2.1,3,2.1c2.6,0.1,8.4,4.2,11.3,9.9l-39,10.5
				C203.4,551.4,206.1,545.2,208.3,543.5z M216.5,606.5l-11.4-42.6l39.7-10.6l11.4,42.6L216.5,606.5z M258.7,609.6
				c-0.6,1-1.6,1.7-2.8,2l-31.2,8.4c-1.2,0.3-2.4,0.2-3.4-0.3c-0.9-0.5-1.5-1.2-1.8-2.1l-1.2-4.6l39.7-10.6l1.2,4.6
				C259.4,607.8,259.2,608.7,258.7,609.6z"/>
		</g>
	</g>
	<g>
		<g>
			<path class="st0" d="M224,535.8c-0.5-1.8-2.3-2.8-4.1-2.3l-0.1,0c-1.8,0.5-2.8,2.3-2.3,4.1c0.4,1.5,1.7,2.5,3.2,2.5
				c0.3,0,0.6,0,0.9-0.1l0.1,0C223.4,539.4,224.4,537.6,224,535.8z"/>
		</g>
	</g>
	<g>
		<g>
			<path class="st0" d="M242.8,576.7c-1.5-5.5-6.4-9.3-12.1-9.3c-1.1,0-2.2,0.1-3.2,0.4c-3.2,0.9-5.9,2.9-7.6,5.8
				c-1.7,2.9-2.1,6.3-1.3,9.5c1.5,5.5,6.4,9.3,12.1,9.3c0,0,0,0,0,0c1.1,0,2.2-0.1,3.2-0.4c3.2-0.9,5.9-2.9,7.6-5.8
				C243.2,583.3,243.6,579.9,242.8,576.7z M235.8,582.8c-0.8,1.4-2.1,2.3-3.6,2.7c-0.5,0.1-1,0.2-1.5,0.2h0c-2.7,0-5-1.8-5.7-4.4
				c-0.4-1.5-0.2-3.1,0.6-4.5c0.8-1.4,2.1-2.3,3.6-2.7c0.5-0.1,1-0.2,1.5-0.2c2.7,0,5,1.8,5.7,4.4
				C236.7,579.9,236.5,581.5,235.8,582.8z"/>
		</g>
	</g>
	<g>
		<g>
			<path class="st0" d="M189.6,456.7c-1.8,0-3.3,1.5-3.3,3.3v8.9c0,1.8,1.5,3.3,3.3,3.3c1.8,0,3.3-1.5,3.3-3.3v-8.9
				C192.9,458.2,191.4,456.7,189.6,456.7z"/>
		</g>
	</g>
	<g>
		<g>
			<path class="st0" d="M178.4,473.4l-4.5-7.7c-0.9-1.6-3-2.1-4.5-1.2c-1.6,0.9-2.1,3-1.2,4.5l4.5,7.7c0.6,1.1,1.7,1.6,2.9,1.6
				c0.6,0,1.1-0.1,1.7-0.5C178.8,477,179.4,475,178.4,473.4z"/>
		</g>
	</g>
	<g>
		<g>
			<path class="st0" d="M209.7,464.5c-1.6-0.9-3.6-0.4-4.5,1.2l-4.5,7.7c-0.9,1.6-0.4,3.6,1.2,4.5c0.5,0.3,1.1,0.5,1.7,0.5
				c1.1,0,2.2-0.6,2.9-1.6l4.5-7.7C211.8,467.5,211.3,465.4,209.7,464.5z"/>
		</g>
	</g>
</g>
</svg>
