<?xml version="1.0" encoding="utf-8"?>
<!-- Generator: Adobe Illustrator 19.0.0, SVG Export Plug-In . SVG Version: 6.00 Build 0)  -->
<svg version="1.1" id="Layer_1" xmlns="http://www.w3.org/2000/svg" xmlns:xlink="http://www.w3.org/1999/xlink" x="0px" y="0px"
	 viewBox="-391 192 177 177" style="enable-background:new -391 192 177 177;" xml:space="preserve">
<style type="text/css">
	.st0{fill:#457987;}
</style>
<g>
	<path class="st0" d="M-225.2,253.8h-10.3v-19.6c0-4.2-3.4-7.6-7.6-7.6h-21.3v-17.3c0-1.3-1-2.3-2.3-2.3h-71.7c-1.3,0-2.3,1-2.3,2.3
		v17.3H-362c-4.2,0-7.6,3.4-7.6,7.6v19.6h-10.3c-4.2,0-7.6,3.4-7.6,7.6v61.1c0,4.2,3.4,7.6,7.6,7.6h39.2v21.6c0,1.3,1,2.3,2.3,2.3
		h71.7c1.3,0,2.3-1,2.3-2.3v-21.6h39.2c4.2,0,7.6-3.4,7.6-7.6v-61.1C-217.5,257.2-221,253.8-225.2,253.8z M-243.1,231.2
		c1.6,0,3,1.3,3,3v19.6h-24.3v-22.6L-243.1,231.2L-243.1,231.2z M-336.1,211.6h67.1v42.2h-67.1V211.6L-336.1,211.6z M-365,234.2
		c0-1.6,1.3-3,3-3h21.3v22.6H-365C-365,253.8-365,234.2-365,234.2z M-382.9,261.4c0-1.6,1.3-3,3-3h154.7c1.6,0,3,1.3,3,3v21.3
		h-160.7V261.4z M-351.7,325.5v-14.8h11v14.8H-351.7z M-269,349.4h-67.1v-38.7h67.1V349.4z M-264.4,325.5v-14.8h11v14.8H-264.4z
		 M-222.2,322.5c0,1.6-1.3,3-3,3h-23.5v-17.2c0-1.3-1-2.3-2.3-2.3h-103c-1.3,0-2.3,1-2.3,2.3v17.2h-23.6c-1.6,0-3-1.3-3-3v-35.2
		h160.7V322.5z"/>
	<path class="st0" d="M-308.4,263.7h-41.1c-3.8-0.1-6.9,3-7,6.8s3,6.9,6.8,7c0.1,0,0.1,0,0.2,0h41.1c3.8,0.1,6.9-3,7-6.8
		s-3-6.9-6.8-7C-308.3,263.7-308.3,263.7-308.4,263.7z M-308.4,272.8h-41.1c-1.2,0-2.2-0.9-2.3-2.2c0-1.2,0.9-2.2,2.2-2.3h0.1h41.1
		c1.2,0,2.2,0.9,2.3,2.2c0,1.2-0.9,2.2-2.2,2.3H-308.4z"/>
	<path class="st0" d="M-255.6,263.7h-1.1c-3.8,0.1-6.8,3.2-6.8,7c0.1,3.7,3.1,6.7,6.8,6.8h1.1c3.8,0.1,6.9-3,7-6.8s-3-6.9-6.8-7
		C-255.4,263.7-255.5,263.7-255.6,263.7z M-255.6,272.8h-1.1c-1.2,0-2.2-1-2.2-2.3c0-1.2,1-2.1,2.2-2.2h1.1c1.2,0,2.2,0.9,2.3,2.2
		c0,1.2-0.9,2.2-2.2,2.3C-255.5,272.8-255.5,272.8-255.6,272.8z"/>
	<path class="st0" d="M-276.5,263.7h-1.1c-3.8,0.1-6.8,3.2-6.8,7c0.1,3.7,3.1,6.7,6.8,6.8h1.1c3.8,0.1,6.9-3,7-6.8s-3-6.9-6.8-7
		C-276.4,263.7-276.5,263.7-276.5,263.7z M-276.5,272.8h-1.1c-1.2,0-2.2-1-2.2-2.3c0-1.2,1-2.1,2.2-2.2h1.1c1.2,0,2.2,0.9,2.3,2.2
		c0,1.2-0.9,2.2-2.2,2.3C-276.5,272.8-276.5,272.8-276.5,272.8z"/>
	<path class="st0" d="M-280.4,319.4h-44.3c-1.3,0-2.3,1-2.3,2.3s1,2.3,2.3,2.3h44.3c1.3,0,2.3-1,2.3-2.3S-279.1,319.4-280.4,319.4z"
		/>
	<path class="st0" d="M-280.4,335.4h-44.3c-1.3,0-2.3,1-2.3,2.3s1,2.3,2.3,2.3h44.3c1.3,0,2.3-1,2.3-2.3S-279.1,335.4-280.4,335.4z"
		/>
</g>
</svg>
