<?xml version="1.0" encoding="utf-8"?>
<!-- Generator: Adobe Illustrator 19.0.0, SVG Export Plug-In . SVG Version: 6.00 Build 0)  -->
<svg version="1.1" id="Layer_1" xmlns="http://www.w3.org/2000/svg" xmlns:xlink="http://www.w3.org/1999/xlink" x="0px" y="0px"
	 viewBox="99.5 452.5 177 177" style="enable-background:new 99.5 452.5 177 177;" xml:space="preserve">
<style type="text/css">
	.st0{fill:#457987;}
</style>
<g>
	<g>
		<path class="st0" d="M274.5,514.5c-23.1-23.1-53.8-35.8-86.5-35.8s-63.4,12.7-86.5,35.8c-1.2,1.2-1.2,3.3,0,4.5s3.3,1.2,4.5,0
			c21.9-21.9,51-33.9,82-33.9s60.1,12,82,33.9c0.6,0.6,1.4,0.9,2.3,0.9s1.6-0.3,2.3-0.9C275.7,517.7,275.7,515.7,274.5,514.5z"/>
		<path class="st0" d="M120.2,533.2c-1.2,1.2-1.2,3.3,0,4.5c0.6,0.6,1.4,0.9,2.3,0.9s1.6-0.3,2.3-0.9c34.9-34.9,91.6-34.9,126.5,0
			c1.2,1.2,3.3,1.2,4.5,0c1.2-1.2,1.2-3.3,0-4.5C218.4,495.8,157.6,495.8,120.2,533.2z"/>
		<path class="st0" d="M188,531.6c-18.5,0-36,7.2-49,20.3c-1.2,1.2-1.2,3.3,0,4.5s3.3,1.2,4.5,0c11.9-11.9,27.7-18.4,44.5-18.4
			s32.7,6.5,44.5,18.4c0.6,0.6,1.4,0.9,2.3,0.9s1.6-0.3,2.3-0.9c1.2-1.2,1.2-3.3,0-4.5C224,538.8,206.5,531.6,188,531.6z"/>
		<path class="st0" d="M188,561.6c-11.5,0-20.9,9.4-20.9,20.9s9.4,20.9,20.9,20.9c11.5,0,20.9-9.4,20.9-20.9S199.5,561.6,188,561.6z
			 M188,596.9c-8,0-14.5-6.5-14.5-14.5c0-8,6.5-14.5,14.5-14.5s14.5,6.5,14.5,14.5C202.5,590.4,196,596.9,188,596.9z"/>
	</g>
</g>
</svg>
