<?xml version="1.0" encoding="utf-8"?>
<!-- Generator: Adobe Illustrator 19.0.0, SVG Export Plug-In . SVG Version: 6.00 Build 0)  -->
<svg version="1.1" id="Layer_1" xmlns="http://www.w3.org/2000/svg" xmlns:xlink="http://www.w3.org/1999/xlink" x="0px" y="0px"
	 viewBox="0 0 479 479" style="enable-background:new 0 0 479 479;" xml:space="preserve">
<style type="text/css">
	.st0{fill:#FFFFFF;}
</style>
<g>
	<path class="st0" d="M355.1,157.2h-40.4c-3.8,0-7,3.1-7,7c0,3.8,3.1,7,7,7h40.4c3.8,0,7-3.1,7-7C362.1,160.3,359,157.2,355.1,157.2
		z"/>
	<path class="st0" d="M314.7,114.7h18.4c3.9,0,7-3.1,7-7c0-3.9-3.1-7-7-7h-18.4c-3.8,0-7,3.1-7,7
		C307.7,111.5,310.9,114.7,314.7,114.7z"/>
	<path class="st0" d="M314.7,58.2h24.9c3.8,0,7-3.1,7-7c0-3.8-3.1-7-7-7h-24.9c-3.8,0-7,3.1-7,7C307.7,55,310.9,58.2,314.7,58.2z"/>
	<path class="st0" d="M339.6,270.2h-24.9c-3.8,0-7,3.1-7,7c0,3.8,3.1,7,7,7h24.9c3.8,0,7-3.1,7-7
		C346.5,273.3,343.4,270.2,339.6,270.2z"/>
	<path class="st0" d="M314.7,227.6h18.4c3.9,0,7-3.1,7-7c0-3.8-3.1-7-7-7h-18.4c-3.8,0-7,3.1-7,7
		C307.7,224.5,310.9,227.6,314.7,227.6z"/>
	<path class="st0" d="M284.4,289.5V64.6c0-34.8-28.3-63-63-63s-63,28.3-63,63v224.9c-26,19.7-41.5,50.6-41.5,83.4
		c0,57.6,46.9,104.5,104.5,104.5s104.5-46.9,104.5-104.5C325.9,340.1,310.5,309.2,284.4,289.5z M221.4,463.5
		c-49.9,0-90.6-40.6-90.6-90.6c0-29.4,14.4-57.2,38.5-74.1c1.9-1.3,3-3.4,3-5.7V64.6c0-27.1,22-49.1,49.1-49.1
		c27.1,0,49.1,22,49.1,49.1V293c0,2.3,1.1,4.4,3,5.7c24.1,17,38.5,44.7,38.5,74.1C312,422.8,271.4,463.5,221.4,463.5z"/>
	<path class="st0" d="M251.9,303.3V64.6c0-16.8-13.7-30.5-30.5-30.5s-30.5,13.7-30.5,30.5v21.6c0,3.8,3.1,7,7,7c3.9,0,7-3.1,7-7
		V64.6c0-9.1,7.4-16.6,16.6-16.6S238,55.5,238,64.6v206.5h-33.1v-157c0-3.9-3.1-7-7-7c-3.8,0-7,3.1-7,7v189.1
		c-26.4,11.9-43.8,38.6-43.8,67.8c0,41,33.3,74.3,74.3,74.3c41,0,74.3-33.3,74.3-74.3C295.8,341.9,278.3,315.2,251.9,303.3z
		 M221.4,431.5c-33.3,0-60.4-27.1-60.4-60.4c0-25.1,15.8-47.8,39.3-56.6c2.7-1,4.5-3.6,4.5-6.5v-22.9H238V308c0,2.9,1.8,5.5,4.5,6.5
		c23.5,8.8,39.3,31.5,39.3,56.6C281.8,404.4,254.7,431.5,221.4,431.5z"/>
</g>
</svg>
