<?xml version="1.0" standalone="no"?>
<!DOCTYPE svg PUBLIC "-//W3C//DTD SVG 20010904//EN"
 "http://www.w3.org/TR/2001/REC-SVG-20010904/DTD/svg10.dtd">
<svg version="1.0" xmlns="http://www.w3.org/2000/svg"
 width="600.000000pt" height="600.000000pt" viewBox="0 0 600.000000 600.000000"
 preserveAspectRatio="xMidYMid meet">
<metadata>
Created by potrace 1.11, written by Peter Selinger 2001-2013
</metadata>
<g transform="translate(0.000000,600.000000) scale(0.100000,-0.100000)"
fill="#000000" stroke="none">
<path d="M4 5226 l1 -504 41 -44 c23 -23 95 -92 159 -153 159 -148 179 -167
340 -321 78 -73 166 -156 195 -184 129 -122 316 -298 355 -335 23 -22 109
-104 191 -182 82 -77 163 -154 179 -169 17 -15 98 -91 180 -170 83 -79 173
-164 200 -190 28 -25 117 -110 199 -188 82 -77 174 -165 205 -194 172 -162
173 -164 154 -181 -10 -9 -63 -57 -118 -107 l-100 -92 -226 222 c-125 121
-394 385 -599 586 -205 201 -427 418 -494 483 -66 66 -285 279 -484 475 -200
197 -367 358 -371 360 -4 1 -8 -209 -8 -467 l0 -469 265 -259 c145 -142 320
-313 388 -379 68 -67 278 -272 465 -455 188 -184 393 -385 457 -447 l116 -112
-89 -90 c-49 -50 -93 -90 -98 -90 -4 0 -18 10 -31 22 -20 20 -248 237 -400
382 -28 26 -91 87 -141 134 -49 47 -126 119 -170 161 -44 42 -165 157 -270
256 -353 335 -419 398 -467 443 l-25 23 0 -446 0 -446 483 -486 482 -487 -103
-103 c-57 -57 -106 -103 -109 -103 -6 0 -30 24 -166 166 -52 55 -193 202 -314
327 -120 124 -228 238 -240 252 -12 14 -24 25 -27 25 -3 0 -6 -324 -6 -720 l0
-720 2999 0 2998 0 0 2742 0 2741 -27 -24 c-15 -13 -39 -35 -54 -49 -90 -85
-245 -228 -263 -243 -12 -10 -39 -35 -61 -55 -63 -60 -383 -355 -430 -398 -29
-26 -217 -200 -280 -259 -18 -16 -74 -68 -125 -115 -51 -47 -109 -101 -130
-120 -21 -19 -78 -72 -126 -116 -49 -45 -105 -97 -125 -115 -19 -19 -78 -73
-130 -121 -52 -47 -107 -98 -124 -114 -29 -26 -207 -192 -284 -263 -20 -18
-76 -69 -124 -114 -48 -44 -105 -96 -126 -116 -21 -20 -83 -76 -136 -126 -119
-109 -135 -124 -267 -246 -168 -157 -193 -179 -198 -179 -3 0 -37 30 -76 68
-40 37 -98 91 -130 121 -33 30 -112 104 -178 165 -65 61 -135 127 -156 146
-159 148 -258 240 -289 268 -20 18 -63 59 -96 90 -33 31 -114 107 -179 167
-65 61 -130 121 -145 135 -76 71 -260 242 -286 266 -16 15 -86 80 -155 144
-69 64 -138 129 -155 145 -26 24 -176 163 -285 265 -21 19 -68 64 -106 99 -38
35 -101 93 -140 130 -39 36 -121 113 -184 171 -62 58 -129 120 -149 139 -20
18 -87 81 -150 140 -62 58 -116 107 -120 109 -5 1 -7 -224 -7 -502z"/>
</g>
</svg>
