<?xml version="1.0" encoding="utf-8"?>
<!-- Generator: Adobe Illustrator 19.0.0, SVG Export Plug-In . SVG Version: 6.00 Build 0)  -->
<svg version="1.1" id="Layer_1" xmlns="http://www.w3.org/2000/svg" xmlns:xlink="http://www.w3.org/1999/xlink" x="0px" y="0px"
	 viewBox="34.8 419.4 306.4 243.1" style="enable-background:new 34.8 419.4 306.4 243.1;" xml:space="preserve">
<style type="text/css">
	.st0{fill:#457987;}
</style>
<g>
	<path class="st0" d="M189.8,422.1c-65.8,0-119.3,53.5-119.3,119.3S124,660.8,189.8,660.8s119.3-53.5,119.3-119.3
		S255.6,422.1,189.8,422.1z M189.8,652.8c-61.4,0-111.4-50-111.4-111.4s50-111.4,111.4-111.4s111.4,50,111.4,111.4
		S251.2,652.8,189.8,652.8z"/>
	<path class="st0" d="M193.8,525.6v-40.3c0-2.2-1.8-4-4-4c-2.2,0-4,1.8-4,4v40.3c-5.6,1.4-9.9,5.8-11.4,11.4h-28.4c-2.2,0-4,1.8-4,4
		c0,2.2,1.8,4,4,4h28.4c1.8,6.8,8,11.9,15.3,11.9c8.8,0,15.9-7.1,15.9-15.9C205.7,533.6,200.6,527.4,193.8,525.6z M189.8,548.9
		c-4.4,0-8-3.6-8-8c0-4.4,3.6-8,8-8c4.4,0,8,3.6,8,8C197.8,545.4,194.2,548.9,189.8,548.9z"/>
	<path class="st0" d="M189.8,461.4c2.2,0,4-1.8,4-4v-4c0-2.2-1.8-4-4-4c-2.2,0-4,1.8-4,4v4C185.8,459.6,187.6,461.4,189.8,461.4z"/>
	<path class="st0" d="M189.8,620.5c-2.2,0-4,1.8-4,4v4c0,2.2,1.8,4,4,4c2.2,0,4-1.8,4-4v-4C193.8,622.3,192,620.5,189.8,620.5z"/>
	<path class="st0" d="M277.3,537h-4c-2.2,0-4,1.8-4,4c0,2.2,1.8,4,4,4h4c2.2,0,4-1.8,4-4C281.3,538.8,279.5,537,277.3,537z"/>
	<path class="st0" d="M106.3,537h-4c-2.2,0-4,1.8-4,4c0,2.2,1.8,4,4,4h4c2.2,0,4-1.8,4-4C110.3,538.8,108.5,537,106.3,537z"/>
	<path class="st0" d="M248.9,476.3l-2.8,2.8c-1.6,1.6-1.6,4.1,0,5.6c0.8,0.8,1.8,1.2,2.8,1.2s2-0.4,2.8-1.2l2.8-2.8
		c1.6-1.6,1.6-4.1,0-5.6C252.9,474.7,250.4,474.7,248.9,476.3z"/>
	<path class="st0" d="M128,597.2l-2.8,2.8c-1.6,1.6-1.6,4.1,0,5.6c0.8,0.8,1.8,1.2,2.8,1.2c1,0,2-0.4,2.8-1.2l2.8-2.8
		c1.6-1.6,1.6-4.1,0-5.6C132,595.7,129.5,595.7,128,597.2z"/>
	<path class="st0" d="M251.7,597.2c-1.6-1.6-4.1-1.6-5.6,0c-1.6,1.6-1.6,4.1,0,5.6l2.8,2.8c0.8,0.8,1.8,1.2,2.8,1.2s2-0.4,2.8-1.2
		c1.6-1.6,1.6-4.1,0-5.6L251.7,597.2z"/>
	<path class="st0" d="M130.8,476.3c-1.6-1.6-4.1-1.6-5.6,0s-1.6,4.1,0,5.6l2.8,2.8c0.8,0.8,1.8,1.2,2.8,1.2s2-0.4,2.8-1.2
		c1.6-1.6,1.6-4.1,0-5.6L130.8,476.3z"/>
</g>
</svg>
