<?xml version="1.0" encoding="utf-8"?>
<!-- Generator: Adobe Illustrator 19.0.0, SVG Export Plug-In . SVG Version: 6.00 Build 0)  -->
<svg version="1.1" id="Layer_1" xmlns="http://www.w3.org/2000/svg" xmlns:xlink="http://www.w3.org/1999/xlink" x="0px" y="0px"
	 viewBox="34.8 419.4 306.4 243.1" style="enable-background:new 34.8 419.4 306.4 243.1;" xml:space="preserve">
<style type="text/css">
	.st0{fill:#457987;}
</style>
<g>
	<g>
		<path class="st0" d="M278.6,543.6c-4.6-11.2-15.6-19-28.4-19c-4.8,0-9.4,1.1-13.4,3.1v-10.5c0-14.9-7.8-28.6-19.9-36.4
			c0,0-4.6-6.9-4.7-7.1c0,0,1.4-1.3,1.7-1.6c5.4-5.6,8.5-13.5,9.4-21c0.3-2.3,0.3-4.7-0.2-7c-0.3-1.2-0.7-2.4-1.2-3.5
			c-1.6-3-3.9-4.4-5.3-5.1c-3.7-4.9-7.4-7.9-12.1-9.8c-12.2-5-25.3-1.7-33.3,8.6c-5.1,6.5-13.2,10.2-13.3,10.2l-7.2,3.2l7.2,3.1
			c2.3,1,4.6,1.8,6.8,2.5c0.3,8.2,4.1,15.5,9.9,20.5l-4.7,7.1c-12.1,7.8-19.9,21.5-19.9,36.4v15.3c-5.4-4.9-12.7-7.9-20.5-7.9
			c-12.8,0-23.8,7.9-28.4,19c-17.7,5.8-29.2,13.7-29.2,23.5v17.4c0,7,5.8,13.3,16.9,18.6c-3.7,6.7-5.9,14.4-5.9,22.6v33H165h11h27.6
			h11h82.1v-33c0-8.2-2.1-15.9-5.9-22.6c11.2-5.4,16.9-11.7,16.9-18.6v-17.4C307.8,557.3,296.3,549.4,278.6,543.6z M280.6,551.5
			C295.4,557,301,563,301,567.1c0,4.8-7.4,12-27.9,18.1c-2.4-1.4-4.9-2.5-7.5-3.4c9.1-5.3,15.3-15.2,15.3-26.5
			C280.9,554,280.8,552.8,280.6,551.5z M250.2,531.4c13.2,0,23.9,10.7,23.9,23.9c0,13.2-10.7,23.9-23.9,23.9
			c-13.2,0-23.9-10.7-23.9-23.9C226.3,542.1,237,531.4,250.2,531.4z M215.9,488.5c8.6,6.8,14,17.3,14,28.7v15
			c-0.7,0.6-1.3,1.2-1.9,1.8c-3-0.3-6-0.5-9-0.8v-14.8h-6.8v14.4c-4.1-0.2-8.3-0.4-12.5-0.5l3.3-3.2v-26.1L215.9,488.5z
			 M193.4,485.7l-4.7-5.4c1.5,0.3,3.1,0.4,4.7,0.4c1.6,0,3.2-0.1,4.7-0.4L193.4,485.7z M196.2,505.2v21.1l-2.8,2.8l-2.8-2.8v-21.1
			c0.1,0,0.3,0,0.4,0C192.3,505.2,194,505.2,196.2,505.2z M189.2,491.3l-2.7,4.7l-10.6-12l3-4.5L189.2,491.3z M207.8,479.4l3,4.5
			l-10.6,12l-2.7-4.7L207.8,479.4z M176.5,438.3c6.1-7.8,16.1-10.3,25.4-6.5c3.7,1.5,6.6,4,9.8,8.4l0.8,1.1l1.2,0.3
			c0.2,0.1,1.4,0.5,2.3,2.2c0.6,1.2,1.1,3.3,0.5,7c-1-2.7-2.3-5.2-3.8-6.7l-2-2l-2.4,1.5c0,0-5,3.2-13.3,4.9
			c-9,1.8-18.3,1.3-27.8-1.7C170.2,444.8,173.7,441.9,176.5,438.3z M171.7,455c18.2,3.8,31.7-1.3,37.4-4.1c1.4,2.9,2.8,7.7,3.6,11.3
			c-3.8,7.1-11.2,11.6-19.3,11.6C182.3,473.8,173.2,465.6,171.7,455z M156.8,517.2c0-11.4,5.4-21.9,14-28.7l12.9,14.6v26.1l3.2,3.1
			c-4.1,0-8.2,0.1-12.4,0.3v-14h-6.8v14.4c-3.7,0.2-7.3,0.4-10.9,0.7L156.8,517.2L156.8,517.2z M189.8,539c11.5,0,22.8,0.5,33.5,1.4
			c-2.5,4.4-3.9,9.5-3.9,14.9c0,11.3,6.2,21.2,15.3,26.5c-7.4,2.6-13.9,7-19,12.6c-8.4,0.5-17.1,0.8-25.9,0.8s-17.5-0.3-25.9-0.8
			c-5.1-5.7-11.7-10-19-12.6c9.1-5.3,15.3-15.2,15.3-26.5c0-5.4-1.4-10.5-3.9-14.9C167,539.5,178.3,539,189.8,539z M129.5,531.4
			c13.2,0,23.9,10.7,23.9,23.9c0,13.2-10.7,23.9-23.9,23.9c-13.2,0-23.9-10.7-23.9-23.9C105.6,542.1,116.3,531.4,129.5,531.4z
			 M99,551.5c-0.1,1.2-0.2,2.5-0.2,3.7c0,11.3,6.2,21.2,15.3,26.5c-2.6,0.9-5.1,2.1-7.5,3.4c-20.5-6.1-27.9-13.3-27.9-18.1
			C78.7,563,84.2,557,99,551.5z M78.7,584.5v-5c4.8,4.1,12,7.6,20.8,10.6c-2.6,2.2-4.9,4.6-6.9,7.2C82.6,592.7,78.7,588,78.7,584.5z
			 M169.2,651.9h-12.3v-24.8h-6.8v24.8h-41.2v-24.8h-6.8v24.8H89.8v-26.2c0-21.9,17.8-39.7,39.7-39.7s39.7,17.8,39.7,39.7V651.9z
			 M203.6,625.7v26.2H176v-26.2c0-2.2-0.2-4.4-0.5-6.5c4.7,0.2,9.5,0.2,14.3,0.2s9.6-0.1,14.3-0.2
			C203.8,621.3,203.6,623.5,203.6,625.7z M205.6,612.3c-5.2,0.2-10.5,0.3-15.8,0.3s-10.6-0.1-15.8-0.3c-1.2-3.8-2.8-7.4-4.8-10.8
			c6.8,0.3,13.7,0.5,20.6,0.5s13.8-0.2,20.6-0.5C208.4,604.9,206.8,608.5,205.6,612.3z M277.6,651.9v-24.8h-6.8v24.8h-41.2v-24.8
			h-6.8v24.8h-12.3v-26.2c0-21.9,17.8-39.7,39.7-39.7s39.7,17.8,39.7,39.7v26.2H277.6z M301,584.5L301,584.5
			c0,3.5-3.9,8.2-13.9,12.9c-2-2.6-4.4-5.1-6.9-7.2c8.8-3,16-6.6,20.8-10.6L301,584.5L301,584.5z"/>
	</g>
</g>
</svg>
