<?xml version="1.0" encoding="utf-8"?>
<!-- Generator: Adobe Illustrator 19.0.0, SVG Export Plug-In . SVG Version: 6.00 Build 0)  -->
<svg version="1.1" id="Layer_1" xmlns="http://www.w3.org/2000/svg" xmlns:xlink="http://www.w3.org/1999/xlink" x="0px" y="0px"
	 viewBox="99.5 452.5 177 177" style="enable-background:new 99.5 452.5 177 177;" xml:space="preserve">
<style type="text/css">
	.st0{fill:#457987;}
</style>
<g>
	<g>
		<g>
			<g>
				<path class="st0" d="M271.6,548h-16.7v-4.3c0-1.1-0.9-2-2-2h-44.1c-1.1,0-2,0.9-2,2s0.9,2,2,2h42.1v15.7
					c0,13.8-7.3,26.5-19.2,33.5h-39.2c-11.9-7-19.2-19.7-19.2-33.5v-15.7h13.7c1.1,0,2-0.9,2-2c0-1.1-0.9-2-2-2h-15.7
					c-1.1,0-2,0.9-2,2v17.7c0,7.7,2.1,15.3,6,21.9c2.6,4.5,6.1,8.4,10.1,11.6h-14.1c-1.1,0-2,0.9-2,2c0,7.4,6,13.5,13.5,13.5h63.7
					c7.4,0,13.5-6,13.5-13.5c0-1.1-0.9-2-2-2h-19c3.7-3,6.9-6.5,9.5-10.6h5.8c10.9,0,19.7-8.8,19.7-19.7v-14.6
					C273.6,548.9,272.7,548,271.6,548z M255.4,599c-0.9,4.2-4.7,7.4-9.2,7.4h-63.7c-4.5,0-8.2-3.2-9.2-7.4h18.4h40.3H255.4z
					 M254.8,561.4v-1.1h6.5v4.4c0,4.1-3.3,7.4-7.4,7.4h-0.5C254.4,568.6,254.8,565,254.8,561.4z M269.5,564.7
					c0,8.6-7,15.6-15.6,15.6h-3.5c0.7-1.3,1.2-2.7,1.7-4.1h1.7c6.3,0,11.5-5.2,11.5-11.5v-6.4c0-1.1-0.9-2-2-2h-8.6v-4.1h14.7V564.7
					z"/>
			</g>
		</g>
		<g>
			<g>
				<path class="st0" d="M213.9,517.1l-1.1-1.3c-1.6-2-1.6-4.7,0-6.7c0.7-0.9,0.6-2.2-0.3-2.9c-0.9-0.7-2.2-0.6-2.9,0.3
					c-2.7,3.5-2.7,8.3,0,11.7l1.1,1.3c2,2.6,2,6.1,0,8.7l-1.1,1.4c-0.7,0.9-0.6,2.2,0.3,2.9c0.4,0.3,0.8,0.4,1.3,0.4
					c0.6,0,1.2-0.3,1.6-0.8l1.1-1.4C217.1,526.9,217.1,521.2,213.9,517.1z"/>
			</g>
		</g>
		<g>
			<g>
				<path class="st0" d="M225.2,521.7l-1.1-1.3c-1.6-2-1.6-4.7,0-6.7c0.7-0.9,0.6-2.2-0.3-2.9c-0.9-0.7-2.2-0.6-2.9,0.3
					c-2.7,3.5-2.7,8.3,0,11.7l1.1,1.3c2,2.6,2,6.1,0,8.7l-1.1,1.4c-0.7,0.9-0.6,2.2,0.3,2.9c0.4,0.3,0.8,0.4,1.3,0.4
					c0.6,0,1.2-0.3,1.6-0.8l1.1-1.4C228.4,531.5,228.4,525.8,225.2,521.7z"/>
			</g>
		</g>
		<g>
			<g>
				<path class="st0" d="M202.5,521.7l-1.1-1.3c-1.6-2-1.6-4.7,0-6.7c0.7-0.9,0.6-2.2-0.3-2.9c-0.9-0.7-2.2-0.6-2.9,0.3
					c-2.7,3.5-2.7,8.3,0,11.7l1.1,1.3c2,2.6,2,6.1,0,8.7l-1.1,1.4c-0.7,0.9-0.6,2.2,0.3,2.9c0.4,0.3,0.8,0.4,1.3,0.4
					c0.6,0,1.2-0.3,1.6-0.8l1.1-1.4C205.8,531.5,205.8,525.8,202.5,521.7z"/>
			</g>
		</g>
		<g>
			<g>
				<path class="st0" d="M199.7,542.3c-0.4-0.4-0.9-0.6-1.4-0.6c-0.5,0-1.1,0.2-1.4,0.6c-0.4,0.4-0.6,0.9-0.6,1.4s0.2,1.1,0.6,1.4
					c0.4,0.4,0.9,0.6,1.4,0.6c0.5,0,1.1-0.2,1.4-0.6c0.4-0.4,0.6-0.9,0.6-1.4C200.3,543.2,200.1,542.6,199.7,542.3z"/>
			</g>
		</g>
	</g>
	<g>
		<g>
			<g>
				<path class="st0" d="M165.3,564.7c0-3.1-1.5-5.9-3.8-7.7c2.3-1.8,3.8-4.6,3.8-7.7c0-3.3-1.7-6.2-4.2-8c2.5-2,4.1-5.1,4.1-8.6
					v-20.6l-19.8-25.8h4.4v-15.2h-30.6v15.2h4.6l-20.1,25.8v20.6c0,3.5,1.7,6.6,4.2,8.6c-2.5,1.8-4.1,4.7-4.1,8
					c0,3.1,1.5,5.9,3.8,7.7c-2.3,1.8-3.8,4.6-3.8,7.7c0,3.3,1.6,6.2,4.1,8c-2.5,2-4.2,5.1-4.2,8.6v17.7c0,6,5,11,11,11h11v-0.2
					c1.8,1.4,4.1,2.4,6.6,2.4h4.4c2.5,0,4.8-1,6.6-2.4v0.2h11c6,0,10.8-5,10.8-11v-17.7c0-3.5-1.6-6.6-4.1-8.6
					C163.6,570.9,165.3,568,165.3,564.7z M123.2,482.2v-6.9h22.4v6.9H123.2z M128.9,486.3h11.2l18.9,24.6h-49L128.9,486.3z
					 M155.5,559.2c3.1,0,5.7,2.5,5.7,5.7c0,3.1-2.5,5.7-5.7,5.7H150v4.1h4.4c3.7,0,6.6,2.9,6.6,6.6v17.7c0,3.7-2.9,6.9-6.6,6.9h-7.8
					c0.6-1.7,1-3.1,1-4.7h-4.1c0,3.7-3,6.9-6.8,6.9h-4.4c-3.7,0-6.8-3.2-6.8-6.9h-4.1c0,1.6,0.4,3,1,4.7h-7.8
					c-3.7,0-6.9-3.2-6.9-6.9v-17.7c0-3.7,3.2-6.6,6.9-6.6h22.1v-4.1h-23.2c-3.1,0-5.7-2.5-5.7-5.7c0-3.1,2.5-5.7,5.7-5.7h23.2V555
					h-23.2c-3.1,0-5.7-2.5-5.7-5.7c0-3.1,2.5-5.7,5.7-5.7h23.2v-4.1h-22.1c-3.7,0-6.9-3.2-6.9-6.9V515H161v17.7
					c0,3.7-2.9,6.9-6.6,6.9H150v4.1h5.5c3.1,0,5.7,2.5,5.7,5.7c0,3.1-2.5,5.7-5.7,5.7H150v4.1H155.5z"/>
			</g>
		</g>
		<g>
			<g>
				<rect x="119.1" y="502.1" class="st0" width="4.4" height="4.1"/>
			</g>
		</g>
		<g>
			<g>
				<rect x="123.5" y="497.6" class="st0" width="4.4" height="4.1"/>
			</g>
		</g>
		<g>
			<g>
				<rect x="141.1" y="555" class="st0" width="4.4" height="4.1"/>
			</g>
		</g>
		<g>
			<g>
				<rect x="141.1" y="539.6" class="st0" width="4.4" height="4.1"/>
			</g>
		</g>
		<g>
			<g>
				<rect x="141.1" y="570.5" class="st0" width="4.4" height="4.1"/>
			</g>
		</g>
	</g>
</g>
</svg>
