<?xml version="1.0" encoding="utf-8"?>
<!-- Generator: Adobe Illustrator 19.0.0, SVG Export Plug-In . SVG Version: 6.00 Build 0)  -->
<svg version="1.1" id="Layer_1" xmlns="http://www.w3.org/2000/svg" xmlns:xlink="http://www.w3.org/1999/xlink" x="0px" y="0px"
	 viewBox="99.5 452.5 177 177" style="enable-background:new 99.5 452.5 177 177;" xml:space="preserve">
<style type="text/css">
	.st0{fill:#457987;}
</style>
<g>
	<g id="Dustpan_1_">
		<path class="st0" d="M175.3,566.8h-19.8v-102c0-4.7-3.8-8.5-8.5-8.5s-8.5,3.8-8.5,8.5v102h-19.8c-7.8,0-14.2,6.3-14.2,14.2v42.5
			c0,1.6,1.3,2.8,2.8,2.8h79.3c1.6,0,2.8-1.3,2.8-2.8V581C189.5,573.1,183.1,566.8,175.3,566.8z M144.1,464.8c0-1.6,1.3-2.8,2.8-2.8
			s2.8,1.3,2.8,2.8v102h-5.7V464.8z M111.3,620.6l1.9-5.7h67.7l1.9,5.7H111.3z M115,609.3l8.5-25.5h46.9l8.5,25.5H115z M183.8,606
			l-8.6-26c-0.4-1.1-1.5-1.9-2.7-1.9h-51c-1.2,0-2.3,0.8-2.7,1.9l-8.6,26v-25c0-4.7,3.8-8.5,8.5-8.5h56.7c4.7,0,8.5,3.8,8.5,8.5V606
			z"/>
		<path class="st0" d="M274.4,622.8l-12.9-54.2c4.1-2.2,5.7-7.3,3.5-11.4c-1.5-2.8-4.4-4.5-7.5-4.5h-14.2v-87.8
			c0-4.7-3.8-8.5-8.5-8.5c-4.7,0-8.5,3.8-8.5,8.5v87.8h-14.2c-4.7,0-8.5,3.8-8.5,8.4c0,3.1,1.7,6,4.5,7.5l-12.9,54.2
			c-0.4,1.5,0.5,3,2,3.4c0.2,0.1,0.5,0.1,0.7,0.1h73.7c1.5,0,2.8-1.2,2.8-2.8C274.5,623.3,274.5,623.1,274.4,622.8z M232,464.8
			c0-1.6,1.3-2.8,2.8-2.8c1.6,0,2.8,1.3,2.8,2.8v87.8H232V464.8z M212.1,558.3h45.3c1.6,0,2.8,1.3,2.8,2.8c0,1.6-1.3,2.8-2.8,2.8
			h-45.3c-1.6,0-2.8-1.3-2.8-2.8C209.3,559.6,210.6,558.3,212.1,558.3z M260.3,620.6v-17h-5.7v17H249v-28.3h-5.7v28.3h-5.7v-36.8
			H232v36.8h-5.7v-28.3h-5.7v28.3H215v-17h-5.7v17h-7.7l12.1-51h42.2l12.1,51H260.3z"/>
	</g>
</g>
</svg>
