<svg id="Capa_1" data-name="Capa 1" xmlns="http://www.w3.org/2000/svg" viewBox="0 0 34.87 33.29"><defs><style>.cls-1{fill:#6b8590;}</style></defs><title>icon_maps</title><path class="cls-1" d="M595.37,133.57a7.82,7.82,0,0,0-7.92,7.83,10.65,10.65,0,0,0,.62,3.39q3.28,6.84,6.59,13.69a.79.79,0,0,0,1.44,0c2.17-4.57,4.44-9.11,6.59-13.69a10.58,10.58,0,0,0,.62-3.39A7.84,7.84,0,0,0,595.37,133.57Zm0,1.59a6.2,6.2,0,0,1,6.35,6.24,10.26,10.26,0,0,1-.52,2.8c-1.92,4-3.88,8.08-5.82,12.11-1.87-4.07-4-8-5.82-12.11a10.28,10.28,0,0,1-.52-2.8A6.17,6.17,0,0,1,595.37,135.15Zm0,2.38a4,4,0,1,0,4,4A4,4,0,0,0,595.39,137.53Zm0,1.59A2.38,2.38,0,1,1,593,141.5,2.37,2.37,0,0,1,595.39,139.12Zm-14.27,10.31c-.45,0-.64.25-.78.67L578,165.95a.83.83,0,0,0,.78.92H612a.83.83,0,0,0,.78-.92l-2.38-15.85a.82.82,0,0,0-.78-.67h-7.41c-.26.53-.52,1.05-.78,1.59H609l.47,3.17h-9.51l-1.05,2.17,7.15,8.93H594.18l-4.93-6.17,2.81-2.38-.7-1.46-3.1,2.61-5.5-6.87h6.55l-.77-1.59Zm.51,2.7,10.53,13.15h-12.5Zm18.82,3.64h9.25l.59,4h-6.68Zm4.45,5.55h5.64l.59,4h-3.06Z" transform="translate(-577.95 -133.57)"/></svg>