<svg id="Capa_1" data-name="Capa 1" xmlns="http://www.w3.org/2000/svg" viewBox="0 0 120.49 220.06"><defs><style>.cls-1{fill:#c8c0a9;}.cls-2{fill:#6b8590;}.cls-3{fill:#abc4cb;}.cls-4{fill:#8b9b8b;}.cls-5{fill:#5e534f;}.cls-6{fill:#343939;}.cls-7{fill:#474947;}.cls-8{font-size:10px;fill:#272425;font-family:Montserrat-Light, Montserrat;letter-spacing:-0.03em;}.cls-9{letter-spacing:-0.02em;}.cls-10{letter-spacing:-0.03em;}.cls-11{letter-spacing:-0.02em;}</style></defs><title>logo_curto_propiedades</title><rect class="cls-1" y="56.65" width="38.98" height="69.36"/><rect class="cls-2" x="81.51" y="21.36" width="38.98" height="90.73"/><polygon class="cls-3" points="27.17 0 27.17 56.65 38.98 56.65 38.98 112.09 49.45 112.09 49.45 35.37 66.15 35.37 66.15 0 27.17 0"/><rect class="cls-4" x="27.17" y="56.65" width="11.81" height="55.43"/><polygon class="cls-5" points="98.23 126.02 49.45 126.02 49.45 112.08 66.15 112.08 66.15 35.37 81.51 35.37 81.51 112.08 98.23 112.08 98.23 126.02"/><rect class="cls-6" x="81.51" y="35.37" width="16.71" height="76.72"/><rect class="cls-7" x="49.45" y="35.37" width="16.71" height="76.72"/><path class="cls-5" d="M613.32,395.56a12.32,12.32,0,0,1-8.88,3.47c-8.67,0-12.35-6-12.38-12.05s3.93-12.31,12.38-12.31a12.09,12.09,0,0,1,8.59,3.57l-2.94,2.84a8,8,0,0,0-5.64-2.2c-5.64,0-8.08,4.2-8,8.11s2.27,7.9,8,7.9a8.62,8.62,0,0,0,5.88-2.36Z" transform="translate(-591.41 -229.98)"/><path class="cls-5" d="M636.6,375.16v13.39c0,6.91-4.24,10.45-10.11,10.45-5.61,0-10.38-3.41-10.38-10.45V375.16h4.38v13.39c0,4.21,2.4,6.44,6,6.44s5.71-2.44,5.71-6.44V375.16Z" transform="translate(-591.41 -229.98)"/><path class="cls-5" d="M662.3,398.49h-5.24l-6.81-7.8H646v7.8h-4.41V375.1c3.7,0,7.41,0,11.12,0,5.51,0,8.41,3.71,8.41,7.74,0,3.19-1.47,6.44-5.91,7.34l7.07,8ZM646,379.23v7.48h6.71a3.75,3.75,0,1,0,0-7.48Z" transform="translate(-591.41 -229.98)"/><path class="cls-5" d="M671.85,379.14h-7.41v-4h19.23v4h-7.41v19.35h-4.41Z" transform="translate(-591.41 -229.98)"/><path class="cls-5" d="M710,386.94c-.07,6-3.77,12.09-12,12.09s-12-5.9-12-12.05,3.95-12.31,12-12.31S710,380.84,710,386.94Zm-19.66.1c.1,3.84,2.17,8,7.68,8s7.57-4.14,7.64-8-2.13-8.34-7.64-8.34S690.21,383.1,690.3,387Z" transform="translate(-591.41 -229.98)"/><path class="cls-5" d="M596.19,412.25h-2.54v2.65h-1.7v-9l4.24,0A3.19,3.19,0,1,1,596.19,412.25Zm-2.54-1.56h2.54a1.59,1.59,0,1,0,0-3.19h-2.54Z" transform="translate(-591.41 -229.98)"/><path class="cls-5" d="M611.2,414.91h-2l-2.62-3h-1.62v3h-1.71v-9l4.28,0a3,3,0,0,1,3.24,3,2.68,2.68,0,0,1-2.28,2.84l2.73,3.07Zm-6.27-7.42v2.88h2.57a1.44,1.44,0,1,0,0-2.88Z" transform="translate(-591.41 -229.98)"/><path class="cls-5" d="M623.31,410.45a4.63,4.63,0,1,1-9.25,0,4.63,4.63,0,1,1,9.25,0Zm-7.58,0a3,3,0,1,0,5.91,0,3,3,0,1,0-5.91,0Z" transform="translate(-591.41 -229.98)"/><path class="cls-5" d="M631.37,412.25h-2.55v2.65h-1.7v-9l4.25,0A3.19,3.19,0,1,1,631.37,412.25Zm-2.55-1.56h2.55a1.59,1.59,0,1,0,0-3.19h-2.55Z" transform="translate(-591.41 -229.98)"/><path class="cls-5" d="M638.38,414.91v-9h1.69v9Z" transform="translate(-591.41 -229.98)"/><path class="cls-5" d="M650.95,414.91H644.2v-9h6.75v1.64h-5.06v2.07h4.88v1.59h-4.88v2h5.06Z" transform="translate(-591.41 -229.98)"/><path class="cls-5" d="M662.75,410.32a4.27,4.27,0,0,1-4.5,4.58h-3.54v-9h3.54A4.25,4.25,0,0,1,662.75,410.32Zm-6.35,2.95h1.85a2.88,2.88,0,0,0,0-5.76H656.4Z" transform="translate(-591.41 -229.98)"/><path class="cls-5" d="M672.83,413.21h-4.71l-.77,1.7h-1.84l4-9h1.85l4,9h-1.85Zm-2.35-5.42-1.67,3.84h3.34Z" transform="translate(-591.41 -229.98)"/><path class="cls-5" d="M687,410.32a4.27,4.27,0,0,1-4.5,4.58H679v-9h3.54A4.25,4.25,0,0,1,687,410.32Zm-6.35,2.95h1.85a2.88,2.88,0,0,0,0-5.76h-1.85Z" transform="translate(-591.41 -229.98)"/><path class="cls-5" d="M697.4,414.91h-6.74v-9h6.74v1.64h-5v2.07h4.87v1.59h-4.87v2h5Z" transform="translate(-591.41 -229.98)"/><path class="cls-5" d="M707.11,408.07a2.59,2.59,0,0,0-2.13-1c-1.27,0-1.87.53-1.87,1.19s.92,1,2,1.13c1.88.24,3.64.72,3.64,2.88,0,2-1.78,2.86-3.79,2.86-1.83,0-3.25-.56-3.92-2.21l1.41-.73a2.55,2.55,0,0,0,2.53,1.42c1.07,0,2.07-.37,2.07-1.34s-.89-1.21-2.08-1.33c-1.84-.22-3.54-.71-3.54-2.74,0-1.85,1.82-2.61,3.49-2.62a3.64,3.64,0,0,1,3.53,1.79Z" transform="translate(-591.41 -229.98)"/><text class="cls-8" transform="translate(10.21 216.41)">C<tspan class="cls-9" x="6.67" y="0">OMERCIALIZ</tspan><tspan class="cls-10" x="67.93" y="0">A</tspan><tspan class="cls-11" x="74.72" y="0">CIÓN</tspan></text></svg>