<?xml version="1.0" encoding="utf-8"?>
<!-- Generator: Adobe Illustrator 19.0.0, SVG Export Plug-In . SVG Version: 6.00 Build 0)  -->
<svg version="1.1" id="Layer_1" xmlns="http://www.w3.org/2000/svg" xmlns:xlink="http://www.w3.org/1999/xlink" x="0px" y="0px"
	 viewBox="-326 159.9 306.4 243.1" style="enable-background:new -326 159.9 306.4 243.1;" xml:space="preserve">
<style type="text/css">
	.st0{fill:#457987;}
</style>
<g>
	<g>
		<path class="st0" d="M-240.5,246.5c20.3,0,36.8-16.5,36.8-36.8s-16.5-36.8-36.8-36.8s-36.8,16.5-36.8,36.8
			S-260.7,246.5-240.5,246.5z M-240.5,181.8c15.4,0,27.9,12.5,27.9,27.9s-12.5,27.9-27.9,27.9s-27.9-12.5-27.9-27.9
			S-255.8,181.8-240.5,181.8z"/>
		<path class="st0" d="M-143.4,246.5c20.3,0,36.8-16.5,36.8-36.8s-16.5-36.8-36.8-36.8s-36.8,16.5-36.8,36.8
			S-163.7,246.5-143.4,246.5z M-143.4,181.8c15.4,0,27.9,12.5,27.9,27.9s-12.5,27.9-27.9,27.9s-27.9-12.5-27.9-27.9
			S-158.8,181.8-143.4,181.8z"/>
		<path class="st0" d="M-95.7,295.8c0.9,1.2,2.1,1.7,3.5,1.7c1,0,1.9-0.3,2.7-0.9c2-1.5,2.3-4.3,0.8-6.2
			c-13.2-17-33.1-26.9-54.7-26.9c-13.8,0-27.2,4.1-38.6,11.8c-2.1,1.3-2.6,4.1-1.2,6.2c1.3,2.1,4.1,2.6,6.2,1.2
			c10-6.7,21.6-10.3,33.7-10.3C-124.6,272.3-107.2,280.9-95.7,295.8z"/>
		<path class="st0" d="M-240.5,263.5c-38.1,0-69.1,31-69.1,69.1c0,2.4,2,4.4,4.4,4.4s4.4-2,4.4-4.4c0-33.2,27-60.2,60.2-60.2
			s60.2,27,60.2,60.2c0,2.4,2,4.4,4.4,4.4s4.4-2,4.4-4.4C-171.4,294.5-202.3,263.5-240.5,263.5z"/>
		<path class="st0" d="M-78.7,304.7c-23.5,0-42.7,19.1-42.7,42.7c0,23.5,19.1,42.7,42.7,42.7c23.5,0,42.7-19.1,42.7-42.7
			C-36.1,323.8-55.3,304.7-78.7,304.7z M-78.7,381.1c-18.7,0-33.8-15.2-33.8-33.8s15.2-33.8,33.8-33.8s33.8,15.2,33.8,33.8
			S-60.1,381.1-78.7,381.1z"/>
		<path class="st0" d="M-64,342.9h-10.3v-10.3c0-2.4-2-4.4-4.4-4.4c-2.4,0-4.4,2-4.4,4.4v10.3h-10.3c-2.4,0-4.4,2-4.4,4.4
			c0,2.4,2,4.4,4.4,4.4H-83v10.3c0,2.4,2,4.4,4.4,4.4c2.4,0,4.4-2,4.4-4.4v-10.3H-64c2.4,0,4.4-2,4.4-4.4
			C-59.6,344.8-61.6,342.9-64,342.9z"/>
	</g>
</g>
</svg>
