<?xml version="1.0" encoding="utf-8"?>
<!-- Generator: Adobe Illustrator 19.0.0, SVG Export Plug-In . SVG Version: 6.00 Build 0)  -->
<svg version="1.1" id="Layer_1" xmlns="http://www.w3.org/2000/svg" xmlns:xlink="http://www.w3.org/1999/xlink" x="0px" y="0px"
	 viewBox="112.4 465.4 151.2 151.2" style="enable-background:new 112.4 465.4 151.2 151.2;" xml:space="preserve">
<style type="text/css">
	.st0{fill:#FFFFFF;}
</style>
<g>
	<path class="st0" d="M261.1,515.8h-45.4v-10.5c3-1.1,5-3.9,5-7.1V473c0-4.2-3.4-7.5-7.6-7.6h-50.4c-4.2,0-7.5,3.4-7.6,7.6v25.2
		c0,3.2,2,6,5,7.1v10.5h-45.4c-1.4,0-2.5,1.1-2.5,2.5v15.1c0,1.4,1.1,2.5,2.5,2.5v22.7c0,1.4,1.1,2.5,2.5,2.5h2.5v50.4
		c0,2.8,2.3,5,5,5h5c2.8,0,5-2.3,5-5v-50.4h15.1v2.5c0,4.2,3.4,7.5,7.6,7.6v40.3c0,2.8,2.3,5,5,5h5c2.8,0,5-2.3,5-5v-40.3h30.2v40.3
		c0,2.8,2.3,5,5,5h5c2.8,0,5-2.3,5-5v-40.3c4.2,0,7.5-3.4,7.6-7.6v-2.5h17.6v50.4c0,2.8,2.3,5,5,5h5c2.8,0,5-2.3,5-5v-50.4
		c1.4,0,2.5-1.1,2.5-2.5V536c1.4,0,2.5-1.1,2.5-2.5v-15.1C263.6,516.9,262.5,515.8,261.1,515.8z M160.3,473c0-1.4,1.1-2.5,2.5-2.5
		h50.4c1.4,0,2.5,1.1,2.5,2.5v25.2c0,1.4-1.1,2.5-2.5,2.5h-50.4c-1.4,0-2.5-1.1-2.5-2.5V473z M210.7,505.7v10.1h-2.5v-10.1H210.7z
		 M203.1,505.7v10.1h-30.2v-10.1H203.1z M167.8,505.7v10.1h-2.5v-10.1H167.8z M130,611.6h-5v-50.4h5V611.6z M167.8,611.6h-5v-40.3h5
		V611.6z M213.2,611.6h-5v-40.3h5V611.6z M220.8,563.7c0,1.4-1.1,2.5-2.5,2.5h-60.5c-1.4,0-2.5-1.1-2.5-2.5v-2.5h65.5V563.7z
		 M253.5,611.6h-5v-50.4h5V611.6z M256,556.1H120V536H256V556.1z M258.6,530.9H117.4v-10.1h141.1V530.9z"/>
</g>
</svg>
