<?xml version="1.0" encoding="utf-8"?>
<!-- Generator: Adobe Illustrator 19.0.0, SVG Export Plug-In . SVG Version: 6.00 Build 0)  -->
<svg version="1.1" id="Layer_1" xmlns="http://www.w3.org/2000/svg" xmlns:xlink="http://www.w3.org/1999/xlink" x="0px" y="0px"
	 viewBox="99.5 452.5 177 177" style="enable-background:new 99.5 452.5 177 177;" xml:space="preserve">
<style type="text/css">
	.st0{fill:#457987;}
</style>
<g>
	<path class="st0" d="M267.7,538c-4.9,0-8.8,4-8.9,8.9v35.4h-26.6v-5.9H247c3.3,0,5.9-2.6,5.9-5.9v-5.9c0-3.3-2.6-5.9-5.9-5.9h-14.8
		v-11.8c0-4.9-4-8.8-8.9-8.9h-29.5c-2.2,0-4.3,0.8-5.9,2.3c-1.6-1.5-3.7-2.3-5.9-2.3h-29.5c-4.9,0-8.8,4-8.9,8.9v11.8H129
		c-3.3,0-5.9,2.6-5.9,5.9v5.9c0,3.3,2.6,5.9,5.9,5.9h14.8v5.9h-26.6v-35.4c0-4.9-4-8.9-8.9-8.9s-8.9,4-8.9,8.9v38.4
		c0,8.1,6.6,14.7,14.8,14.8v29.5h5.9V600h23.6c0,4.9,4,8.8,8.9,8.9v20.7h5.9v-20.7h17.7v20.7h5.9v-20.7c2.2,0,4.3-0.8,5.9-2.3
		c1.6,1.5,3.7,2.3,5.9,2.3v20.7h5.9v-20.7h17.7v20.7h5.9v-20.7c4.9,0,8.8-4,8.9-8.9h23.6v29.5h5.9V600c8.1,0,14.7-6.6,14.8-14.8
		v-38.4C276.5,542,272.5,538.1,267.7,538z M247,564.6v5.9h-14.8v-5.9H247z M129,570.5v-5.9h14.8v5.9H129z M114.2,594.1
		c-4.9,0-8.8-4-8.9-8.9v-38.4c0-1.6,1.3-3,3-3s3,1.3,3,3v35.4c0,3.3,2.6,5.9,5.9,5.9h26.6v5.9H114.2z M182.1,603h-29.5
		c-1.6,0-2.9-1.3-3-3v-53.1c0-1.6,1.3-2.9,3-3h29.5c1.6,0,2.9,1.3,3,3V600C185,601.6,183.7,603,182.1,603z M223.4,603h-29.5
		c-1.6,0-2.9-1.3-3-3v-53.1c0-1.6,1.3-2.9,3-3h29.5c1.6,0,2.9,1.3,3,3V600C226.4,601.6,225,603,223.4,603z M270.6,585.3
		c0,4.9-4,8.8-8.9,8.9h-29.5v-5.9h26.6c3.3,0,5.9-2.6,5.9-5.9v-35.4c0-1.6,1.3-3,3-3s3,1.3,3,3V585.3z"/>
	<path class="st0" d="M131.9,487.9h23.6c3.3,0,5.9-2.6,5.9-5.9v-5.9h11.8v5.9c0,3.3,2.6,5.9,5.9,5.9h14.8c3.3,0,5.9-2.6,5.9-5.9
		v-1.4l14.8,6.3v6.9c0,0.7,0.1,1.4,0.4,2.1l-13.7,5.9c-1.1-1.3-2.7-2-4.4-2.1H185c-3.3,0-5.9,2.6-5.9,5.9h-5.9v-3
		c0-3.3-2.6-5.9-5.9-5.9h-23.6c-3.3,0-5.9,2.6-5.9,5.9v11.8c0,3.3,2.6,5.9,5.9,5.9h23.6c3.3,0,5.9-2.6,5.9-5.9v-3h5.9
		c0,3.3,2.6,5.9,5.9,5.9h11.8c3.3,0,5.9-2.6,5.9-5.9v-4l18.3-7.8h23c3.3,0,5.9-2.6,5.9-5.9V482c0-3.3-2.6-5.9-5.9-5.9h-23.6
		c-2.7,0-5,1.8-5.7,4.5l-14.9-6.4v-4c0-3.3-2.6-5.9-5.9-5.9h-14.8c-3.3,0-5.9,2.6-5.9,5.9h-11.8c0-3.3-2.6-5.9-5.9-5.9h-23.6
		c-3.3,0-5.9,2.6-5.9,5.9V482C126,485.3,128.7,487.9,131.9,487.9z M143.7,514.4v-11.8h23.6l0,11.8H143.7z M185,511.5v-5.9h11.8
		l0,5.9H185z M220.5,482h23.6l0,11.8h-23.6V482z M179.1,470.2h14.8V482h-14.8V470.2z M131.9,470.2h23.6l0,11.8h-23.6V470.2z"/>
	<path class="st0" d="M255.9,532.1c4.9,0,8.8-4,8.9-8.9v-62c0-4.9-4-8.8-8.9-8.9H120.1c-4.9,0-8.8,4-8.9,8.9v62c0,4.9,4,8.8,8.9,8.9
		H255.9z M117.2,523.3v-62c0-1.6,1.3-2.9,3-3h135.7c1.6,0,2.9,1.3,3,3v62c0,1.6-1.3,2.9-3,3H120.1
		C118.5,526.2,117.2,524.9,117.2,523.3z"/>
</g>
</svg>
