<?xml version="1.0" encoding="utf-8"?>
<!-- Generator: Adobe Illustrator 19.0.0, SVG Export Plug-In . SVG Version: 6.00 Build 0)  -->
<svg version="1.1" id="Layer_1" xmlns="http://www.w3.org/2000/svg" xmlns:xlink="http://www.w3.org/1999/xlink" x="0px" y="0px"
	 viewBox="-315 433.4 209.1 326.1" style="enable-background:new -315 433.4 209.1 326.1;" xml:space="preserve">
<style type="text/css">
	.st0{fill:#D1C6AE;}
	.st1{fill:#5E8C98;}
	.st2{fill:#A8CBD3;}
	.st3{fill:#8BA192;}
	.st4{fill:#62524E;}
	.st5{fill:#2E3636;}
	.st6{fill:#454745;}
	.st7{clip-path:url(#SVGID_2_);}
	.st8{fill:#63534E;}
	.st9{clip-path:url(#SVGID_4_);}
	.st10{clip-path:url(#SVGID_6_);}
	.st11{clip-path:url(#SVGID_8_);}
</style>
<g>
	<rect x="-314.4" y="531.2" class="st0" width="67.3" height="119.7"/>
	<rect x="-173.7" y="470.3" class="st1" width="67.3" height="156.6"/>
	<polygon class="st2" points="-267.5,433.4 -267.5,531.2 -247.1,531.2 -247.1,626.9 -229.1,626.9 -229.1,494.5 -200.2,494.5 
		-200.2,433.4 	"/>
	<rect x="-267.5" y="531.2" class="st3" width="20.4" height="95.7"/>
	<polygon class="st4" points="-144.9,650.9 -229.1,650.9 -229.1,626.9 -200.2,626.9 -200.2,494.5 -173.7,494.5 -173.7,626.9 
		-144.9,626.9 	"/>
	<rect x="-173.7" y="494.5" class="st5" width="28.9" height="132.4"/>
	<rect x="-229.1" y="494.5" class="st6" width="28.8" height="132.4"/>
	<g>
		<g>
			<defs>
				<rect id="SVGID_1_" x="-315" y="433.4" width="209.1" height="326.1"/>
			</defs>
			<clipPath id="SVGID_2_">
				<use xlink:href="#SVGID_1_"  style="overflow:visible;"/>
			</clipPath>
			<g class="st7">
				<path class="st8" d="M-276.6,719.2c-4.1,4.1-9.5,6-15.3,6c-15,0-21.3-10.3-21.4-20.8c-0.1-10.5,6.8-21.3,21.4-21.3
					c5.5,0,10.7,2.1,14.8,6.2l-5.1,4.9c-2.7-2.6-6.2-3.8-9.7-3.8c-9.7,0-13.9,7.3-13.9,14c0.1,6.7,3.9,13.7,13.9,13.7
					c3.5,0,7.5-1.4,10.1-4.1L-276.6,719.2z"/>
				<path class="st8" d="M-236.4,684v23.1c0,11.9-7.3,18-17.5,18c-9.7,0-17.9-5.9-17.9-18V684h7.5v23.1c0,7.3,4.1,11.1,10.4,11.1
					c6.3,0,9.9-4.2,9.9-11.1V684H-236.4z"/>
			</g>
		</g>
	</g>
	<g>
		<path class="st8" d="M-192.1,724.3h-9l-11.8-13.5h-7.3v13.5h-7.6v-40.4c6.4,0,12.8,0.1,19.2,0.1c9.5,0.1,14.5,6.4,14.5,13.4
			c0,5.5-2.5,11.1-10.2,12.7l12.2,13.8C-192.1,723.9-192.1,724.3-192.1,724.3z M-220.2,691.1V704h11.6c4.8,0,6.9-3.2,6.9-6.5
			s-2.1-6.5-6.9-6.5h-11.6V691.1z"/>
		<path class="st8" d="M-175.6,690.9h-12.8V684c11.6,0,21.5,0,33.2,0v6.9H-168v33.4h-7.6V690.9z"/>
	</g>
	<g>
		<path class="st8" d="M-109.8,704.4c-0.1,10.4-6.5,20.9-20.7,20.9s-20.7-10.2-20.7-20.8s6.8-21.3,20.7-21.3
			S-109.7,693.8-109.8,704.4z M-143.7,704.5c0.2,6.6,3.7,13.7,13.3,13.7s13.1-7.1,13.2-13.8c0.1-6.8-3.7-14.4-13.2-14.4
			S-143.9,697.7-143.7,704.5z"/>
	</g>
	<g>
		<g>
			<defs>
				<rect id="SVGID_3_" x="-315" y="433.4" width="209.1" height="326.1"/>
			</defs>
			<clipPath id="SVGID_4_">
				<use xlink:href="#SVGID_3_"  style="overflow:visible;"/>
			</clipPath>
			<g class="st9">
				<path class="st8" d="M-306.2,748.1h-4.4v4.6h-2.9v-15.5c2.4,0,4.9,0,7.3,0C-298.6,737.1-298.6,748.1-306.2,748.1z M-310.6,745.4
					h4.4c3.8,0,3.7-5.5,0-5.5h-4.4V745.4z"/>
				<path class="st8" d="M-280.3,752.6h-3.5l-4.5-5.2h-2.8v5.2h-2.9V737c2.5,0,4.9,0,7.4,0c3.7,0,5.6,2.5,5.6,5.2
					c0,2.1-1,4.3-3.9,4.9l4.7,5.3L-280.3,752.6L-280.3,752.6z M-291.1,739.8v5h4.5c1.9,0,2.7-1.2,2.7-2.5c0-1.2-0.8-2.5-2.7-2.5
					H-291.1z"/>
				<path class="st8" d="M-259.4,744.9c0,4-2.5,8-8,8s-8-3.9-8-8c0-4.1,2.6-8.2,8-8.2C-262,736.8-259.3,740.9-259.4,744.9z
					 M-272.5,745c0.1,2.6,1.4,5.3,5.1,5.3c3.7,0,5-2.8,5.1-5.3c0-2.6-1.4-5.5-5.1-5.5C-271,739.4-272.5,742.4-272.5,745z"/>
				<path class="st8" d="M-245.5,748.1h-4.4v4.6h-2.9v-15.5c2.4,0,4.9,0,7.3,0C-237.9,737.1-237.8,748.1-245.5,748.1z M-249.9,745.4
					h4.4c3.8,0,3.7-5.5,0-5.5h-4.4V745.4z"/>
				<path class="st8" d="M-233.3,752.6v-15.5h2.9v15.5H-233.3z"/>
				<path class="st8" d="M-211.7,752.6h-11.6c0-5.2,0-10.4,0-15.5h11.6v2.8h-8.7v3.6h8.4v2.7h-8.4v3.5h8.7
					C-211.7,749.7-211.7,752.6-211.7,752.6z"/>
				<path class="st8" d="M-191.3,744.7c0.1,3.9-2.3,7.9-7.8,7.9c-1.9,0-4.2,0-6.1,0v-15.5c1.9,0,4.2,0,6.1,0
					C-193.7,737.1-191.4,740.9-191.3,744.7z M-202.3,749.8h3.2c3.5,0,4.9-2.6,4.9-5.1c-0.1-2.4-1.5-4.8-4.9-4.8h-3.2V749.8z"/>
				<path class="st8" d="M-173.9,749.7h-8.1l-1.3,2.9h-3.2l7-15.5h3.2l7,15.5h-3.2L-173.9,749.7z M-178,740.4l-2.9,6.6h5.8
					L-178,740.4z"/>
			</g>
		</g>
		<g>
			<defs>
				<rect id="SVGID_5_" x="-315" y="433.4" width="209.1" height="326.1"/>
			</defs>
			<clipPath id="SVGID_6_">
				<use xlink:href="#SVGID_5_"  style="overflow:visible;"/>
			</clipPath>
			<g class="st10">
				<path class="st8" d="M-149.4,744.7c0.1,3.9-2.3,7.9-7.8,7.9c-1.9,0-4.2,0-6.1,0v-15.5c1.9,0,4.2,0,6.1,0
					C-151.9,737.1-149.5,740.9-149.4,744.7z M-160.4,749.8h3.2c3.5,0,4.9-2.6,4.9-5.1c-0.1-2.4-1.5-4.8-4.9-4.8h-3.2V749.8z"/>
				<path class="st8" d="M-131.5,752.6h-11.6c0-5.2,0-10.4,0-15.5h11.6v2.8h-8.7v3.6h8.4v2.7h-8.4v3.5h8.7V752.6z"/>
			</g>
		</g>
		<g>
			<defs>
				<rect id="SVGID_7_" x="-315" y="433.4" width="209.1" height="326.1"/>
			</defs>
			<clipPath id="SVGID_8_">
				<use xlink:href="#SVGID_7_"  style="overflow:visible;"/>
			</clipPath>
			<g class="st11">
				<path class="st8" d="M-114.7,740.8c-0.5-0.9-2-1.7-3.7-1.7c-2.2,0-3.2,0.9-3.2,2.1c0,1.4,1.6,1.7,3.5,2c3.2,0.4,6.3,1.2,6.3,5
					c0,3.5-3.1,5-6.5,5c-3.2,0-5.6-1-6.8-3.8l2.4-1.3c0.7,1.7,2.5,2.5,4.4,2.5c1.8,0,3.6-0.6,3.6-2.3c0-1.5-1.5-2.1-3.6-2.3
					c-3.2-0.4-6.1-1.2-6.1-4.7c0-3.2,3.2-4.5,6-4.5c2.4,0,4.9,0.7,6.1,3.1L-114.7,740.8z"/>
			</g>
		</g>
	</g>
</g>
</svg>
