<?xml version="1.0" encoding="utf-8"?>
<!-- Generator: Adobe Illustrator 19.0.0, SVG Export Plug-In . SVG Version: 6.00 Build 0)  -->
<svg version="1.1" id="Layer_1" xmlns="http://www.w3.org/2000/svg" xmlns:xlink="http://www.w3.org/1999/xlink" x="0px" y="0px"
	 viewBox="0 0 479 479" style="enable-background:new 0 0 479 479;" xml:space="preserve">
<style type="text/css">
	.st0{fill:#FFFFFF;}
</style>
<g>
	<path class="st0" d="M437.4,74.5c1.1,0.6,2.3,0.9,3.5,0.9h37.3V60.5h-35.4L331.9,1.6c-1.1-0.6-2.3-0.9-3.5-0.9H187.9
		c-4.1,0-7.4,3.3-7.5,7.4c-0.2,13.9,5.1,27,14.9,37c9.8,9.9,22.8,15.4,36.7,15.4h67.1c-6.3,13.2-4.4,29.5,6,41l23.2,25.8
		c15.6,17.3,38,27.2,61.1,27.2c2.4,0,4.9-0.1,7.3-0.3l44.5-4h37v-14.9h-37.3c-0.2,0-0.5,0-0.7,0l-44.9,4.1c-21,1.9-41.9-6.3-56-22
		l-23.2-25.8c-7.3-8.2-7.6-20.3-1-28.7L354.7,89l8.3-12.4l-44.8-29.8c0,0-0.1-0.1-0.1-0.1c0,0,0,0-0.1,0c0,0,0,0-0.1,0
		c0,0-0.1,0-0.1-0.1c0,0,0,0,0,0c0,0-0.1,0-0.1-0.1c0,0,0,0,0,0c-1.2-0.7-2.4-1-3.7-1h-82c-9.9,0-19.2-3.9-26.1-10.9
		c-5.2-5.3-8.6-11.8-9.9-18.9h130.6L437.4,74.5z"/>
	<path class="st0" d="M247,418.5h-67.1c6.3-13.2,4.4-29.5-6-41l-23.2-25.8c-17.2-19.1-42.8-29.2-68.4-26.8l-44.5,4h-37v14.9h37.3
		c0.2,0,0.5,0,0.7,0l44.9-4.1c21-1.9,41.9,6.3,56,22l23.2,25.8c7.3,8.2,7.6,20.3,1,28.7L124.3,390l-8.3,12.4l44.8,29.8
		c1.3,0.8,2.7,1.3,4.1,1.3H247c9.9,0,19.2,3.9,26.1,10.9c5.2,5.3,8.6,11.8,9.9,18.9H152.5L41.6,404.5c-1.1-0.6-2.3-0.9-3.5-0.9H0.8
		v14.9h35.4l110.9,58.8c1.1,0.6,2.3,0.9,3.5,0.9h140.5c4.1,0,7.4-3.3,7.5-7.4c0.2-13.9-5.1-27-14.9-37
		C273.9,424,260.9,418.5,247,418.5L247,418.5z"/>
	<path class="st0" d="M321.6,194.7h-67.1v-82.1c0-3.3-2.2-6.2-5.4-7.2c-3.2-0.9-6.6,0.4-8.4,3.2l-89.5,141.7
		c-1.5,2.3-1.5,5.2-0.2,7.6c1.3,2.4,3.8,3.9,6.5,3.9h67.1v104.4c0,3.4,2.3,6.4,5.6,7.2c0.6,0.2,1.2,0.2,1.8,0.2
		c2.7,0,5.2-1.5,6.5-3.9l89.5-164.1c1.3-2.3,1.2-5.1-0.1-7.4C326.6,196.1,324.2,194.7,321.6,194.7z M239.5,337.1v-82.6
		c0-4.1-3.3-7.5-7.5-7.5H171l68.5-108.5v63.7c0,4.1,3.3,7.5,7.5,7.5h62L239.5,337.1z"/>
	<path class="st0" d="M147.1,103.8C120.5,122,100,147.3,87.7,177l13.8,5.7c11.1-27,29.8-50,54-66.5c24.8-16.9,53.8-25.8,84-25.8
		c12,0,24,1.4,35.5,4.3l3.5-14.5c-12.7-3.1-25.9-4.7-39.1-4.7C206.4,75.4,174.4,85.2,147.1,103.8L147.1,103.8z"/>
	<path class="st0" d="M82.2,192.6c-4.5,15.2-6.8,30.9-6.8,46.9c0,24.6,5.3,48.3,15.8,70.3l13.5-6.4c-9.5-20-14.4-41.6-14.4-63.9
		c0-14.5,2.1-28.9,6.2-42.6L82.2,192.6z"/>
	<path class="st0" d="M239.5,388.7c-12,0-24-1.4-35.6-4.3l-3.5,14.5c12.7,3.1,25.9,4.7,39.1,4.7c60.3,0,115.6-32.9,144.4-86
		l-13.1-7.1C344.6,358.8,294.3,388.7,239.5,388.7z"/>
	<path class="st0" d="M391.3,302c8.2-19.8,12.3-40.9,12.3-62.5c0-24.6-5.3-48.3-15.8-70.4l-13.5,6.4c9.5,20.1,14.4,41.6,14.4,64
		c0,19.7-3.8,38.8-11.2,56.8L391.3,302z"/>
</g>
</svg>
