<?xml version="1.0" standalone="no"?>
<!DOCTYPE svg PUBLIC "-//W3C//DTD SVG 20010904//EN"
 "http://www.w3.org/TR/2001/REC-SVG-20010904/DTD/svg10.dtd">
<svg version="1.0" xmlns="http://www.w3.org/2000/svg"
 width="601.000000pt" height="601.000000pt" viewBox="0 0 601.000000 601.000000"
 preserveAspectRatio="xMidYMid meet">
<metadata>
Created by potrace 1.11, written by Peter Selinger 2001-2013
</metadata>
<g transform="translate(0.000000,601.000000) scale(0.100000,-0.100000)"
fill="#000000" stroke="none">
<path d="M1430 4655 l0 -1345 -645 0 -645 0 0 -1655 0 -1655 925 0 925 0 2
332 3 333 248 3 247 2 0 -335 0 -335 1165 0 1165 0 0 330 0 330 530 0 530 0 0
2165 0 2165 -930 0 -930 0 0 -335 0 -335 -365 0 -365 0 0 840 0 840 -930 0
-930 0 0 -1345z"/>
</g>
</svg>
