<?xml version="1.0" standalone="no"?>
<!DOCTYPE svg PUBLIC "-//W3C//DTD SVG 20010904//EN"
 "http://www.w3.org/TR/2001/REC-SVG-20010904/DTD/svg10.dtd">
<svg version="1.0" xmlns="http://www.w3.org/2000/svg"
 width="629.000000pt" height="629.000000pt" viewBox="0 0 629.000000 629.000000"
 preserveAspectRatio="xMidYMid meet">
<metadata>
Created by potrace 1.11, written by Peter Selinger 2001-2013
</metadata>
<g transform="translate(0.000000,629.000000) scale(0.100000,-0.100000)"
fill="#000000" stroke="none">
<path d="M1500 4880 l0 -1410 -675 0 -675 0 0 -1735 0 -1735 970 0 970 0 0
350 0 350 260 0 260 0 0 -350 0 -350 1220 0 1220 0 0 350 0 350 550 0 550 0 0
2265 0 2265 -975 0 -975 0 0 -350 0 -350 -375 0 -375 0 0 880 0 880 -975 0
-975 0 0 -1410z"/>
</g>
</svg>
